<?xml version="1.0" encoding="utf-8"?>
<!-- Generator: Adobe Illustrator 19.0.0, SVG Export Plug-In . SVG Version: 6.00 Build 0)  -->
<!DOCTYPE svg PUBLIC "-//W3C//DTD SVG 1.1//EN" "http://www.w3.org/Graphics/SVG/1.1/DTD/svg11.dtd">
<svg version="1.1" id="Layer_1" xmlns="http://www.w3.org/2000/svg" xmlns:xlink="http://www.w3.org/1999/xlink" x="0px" y="0px"
	 viewBox="-196 379.6 212.1 26" style="enable-background:new -196 379.6 212.1 26;" xml:space="preserve">
<style type="text/css">
	.st0{fill:#F9F9FA;}
</style>
<path id="XMLID_16_" class="st0" d="M-196,380.9c-0.1-0.5,0.2-0.9,0.7-0.9h3.3c0.3,0,0.6,0.3,0.6,0.5l3.7,14.4h0.1l5.7-14.8
	c0.2-0.3,0.4-0.5,0.8-0.5h0.6c0.4,0,0.5,0.2,0.6,0.4l5.8,14.8h0.1l3.7-14.4c0.1-0.3,0.4-0.5,0.6-0.5h3.3c0.5,0,0.8,0.4,0.6,0.9
	l-6.8,24.2c-0.1,0.3-0.4,0.5-0.6,0.5h-0.6c-0.3,0-0.5-0.2-0.6-0.4l-6.4-16.3h-0.2l-6.3,16.4c-0.1,0.2-0.3,0.4-0.6,0.4h-0.6
	c-0.3,0-0.6-0.2-0.6-0.5L-196,380.9z"/>
<path id="XMLID_18_" class="st0" d="M-165.7,404.3l11.2-24.3c0.1-0.2,0.3-0.4,0.6-0.4h0.4c0.4,0,0.5,0.2,0.6,0.4l11.1,24.2
	c0.2,0.5-0.1,0.9-0.6,0.9h-3.1c-0.5,0-0.8-0.2-1-0.7l-1.9-3.8h-10.8l-1.8,3.9c-0.1,0.4-0.5,0.7-1,0.7h-3.1
	C-165.6,405.2-165.9,404.7-165.7,404.3z M-150.2,396.6l-3.6-7.9h-0.1l-3.5,7.9H-150.2z"/>
<path id="XMLID_21_" class="st0" d="M-136.5,384.3h-5.5c-0.4,0-0.7-0.3-0.7-0.7v-3c0-0.4,0.3-0.7,0.7-0.7h15.7
	c0.4,0,0.7,0.3,0.7,0.7v3c0,0.4-0.3,0.7-0.7,0.7h-5.5v20.2c0,0.4-0.3,0.7-0.7,0.7h-3.3c-0.4,0-0.7-0.3-0.7-0.7V384.3z"/>
<path id="XMLID_23_" class="st0" d="M-111,379.6c3.6,0,6.3,1.2,8.7,3.3c0.3,0.3,0.3,0.7,0,1l-2.2,2.3c-0.3,0.3-0.6,0.3-0.9,0
	c-1.5-1.3-3.5-2.1-5.5-2.1c-4.6,0-8,3.9-8,8.4s3.5,8.3,8.1,8.3c2.2,0,4-0.8,5.5-2.1c0.3-0.3,0.7-0.2,0.9,0l2.2,2.3
	c0.3,0.3,0.2,0.7,0,1c-2.5,2.4-5.6,3.6-8.8,3.6c-7.2,0-13-5.7-13-12.9C-124,385.5-118.2,379.6-111,379.6z"/>
<path id="XMLID_25_" class="st0" d="M-97.5,380.7c0-0.4,0.3-0.7,0.7-0.7h3.3c0.4,0,0.7,0.3,0.7,0.7v9.5H-81v-9.5
	c0-0.4,0.3-0.7,0.7-0.7h3.3c0.4,0,0.7,0.3,0.7,0.7v23.8c0,0.4-0.3,0.7-0.7,0.7h-3.3c-0.4,0-0.7-0.3-0.7-0.7v-9.9h-11.7v9.9
	c0,0.4-0.3,0.7-0.7,0.7h-3.3c-0.4,0-0.7-0.3-0.7-0.7v-23.8H-97.5z"/>
<path id="XMLID_27_" class="st0" d="M-50.7,379.6c7.2,0,13,5.8,13,13s-5.8,12.9-13,12.9s-12.9-5.7-12.9-12.9S-57.9,379.6-50.7,379.6
	z M-50.7,400.9c4.5,0,8.3-3.7,8.3-8.2s-3.7-8.3-8.3-8.3c-4.5,0-8.2,3.8-8.2,8.3C-59,397.2-55.3,400.9-50.7,400.9z"/>
<path id="XMLID_30_" class="st0" d="M-33.4,380.7c0-0.4,0.3-0.7,0.7-0.7h3.4c0.4,0,0.7,0.3,0.7,0.7v14.7c0,3.1,2.1,5.5,5.2,5.5
	s5.3-2.4,5.3-5.4v-14.8c0-0.4,0.3-0.7,0.7-0.7h3.4c0.4,0,0.7,0.3,0.7,0.7v15c0,5.5-4.4,9.9-10,9.9c-5.7,0-10-4.4-10-9.9L-33.4,380.7
	L-33.4,380.7z"/>
<path id="XMLID_32_" class="st0" d="M-3.8,384.3h-5.5c-0.4,0-0.7-0.3-0.7-0.7v-3c0-0.4,0.3-0.7,0.7-0.7H6.4c0.4,0,0.7,0.3,0.7,0.7v3
	c0,0.4-0.3,0.7-0.7,0.7H0.9v20.2c0,0.4-0.3,0.7-0.7,0.7h-3.3c-0.4,0-0.7-0.3-0.7-0.7V384.3z"/>
<path id="XMLID_34_" class="st0" d="M13.1,399.6c1.7,0,3,1.4,3,3s-1.3,3-3,3c-1.6,0-2.9-1.3-2.9-3C10.2,401,11.5,399.6,13.1,399.6z
	 M11.9,394.8l-1.4-10v-4.1c0-0.4,0.3-0.7,0.7-0.7h4c0.4,0,0.7,0.3,0.7,0.7v4l-1.4,10.1c0,0.3-0.4,0.6-0.7,0.6h-1.2
	C12.3,395.4,11.9,395.1,11.9,394.8z"/>
</svg>
