<?xml version="1.0" encoding="utf-8"?>
<!-- Generator: Adobe Illustrator 12.0.1, SVG Export Plug-In . SVG Version: 6.00 Build 51448)  -->
<!DOCTYPE svg PUBLIC "-//W3C//DTD SVG 1.1//EN" "http://www.w3.org/Graphics/SVG/1.1/DTD/svg11.dtd" [
	<!ENTITY ns_svg "http://www.w3.org/2000/svg">
	<!ENTITY ns_xlink "http://www.w3.org/1999/xlink">
]>
<svg  version="1.1" id="Layer_1" xmlns="&ns_svg;" xmlns:xlink="&ns_xlink;" width="348.325" height="187.895"
	 viewBox="0 0 348.325 187.895" overflow="visible" enable-background="new 0 0 348.325 187.895" xml:space="preserve">
<g>
	<path d="M10.656,4.248c0-1.116,0-1.152-1.08-1.152h-2.34c-1.548,0-3.528,0.072-4.428,0.9C1.944,4.788,1.584,5.58,1.188,6.48
		C0.9,6.696,0.396,6.516,0.252,6.228c0.576-1.62,1.116-3.924,1.368-5.364c0.108-0.072,0.576-0.108,0.684,0
		C2.52,2.016,3.708,1.98,5.364,1.98h14.94c1.98,0,2.556-0.216,2.664-0.504V0.972L25.38,0c0.144,0,0.288,0.072,0.36,0.216
		c-0.036,1.08-0.108,2.88-0.108,4.464v7.56c0,0.324,0.036,0.612,0.144,0.684c1.296-1.008,3.024-1.872,4.86-1.872
		c3.42,0,4.644,2.124,4.644,4.644v6.012c0,2.592,0.072,2.988,1.368,3.132l0.972,0.108c0.252,0.18,0.18,0.792-0.072,0.9
		c-1.296-0.072-2.34-0.108-3.6-0.108c-1.296,0-2.376,0.036-3.348,0.108c-0.252-0.108-0.324-0.72-0.072-0.9l0.72-0.108
		c1.332-0.216,1.368-0.54,1.368-3.132V16.56c0-2.304-1.116-3.852-3.42-3.852c-1.224,0-2.16,0.432-2.808,0.972
		c-0.648,0.54-0.756,0.72-0.756,1.98v6.048c0,2.592,0.072,2.952,1.368,3.132l0.756,0.108c0.252,0.144,0.18,0.792-0.072,0.9
		c-1.08-0.072-2.124-0.108-3.384-0.108c-1.296,0-2.376,0.036-3.528,0.108c-0.252-0.108-0.324-0.72-0.072-0.9l0.9-0.108
		c1.332-0.144,1.368-0.54,1.368-3.132V5.616c0-2.268-0.828-2.52-5.04-2.52h-3.276c-1.08,0-1.044,0.036-1.044,1.224v16.02
		c0,3.78,0.072,4.32,2.16,4.5l1.152,0.108c0.216,0.144,0.144,0.792-0.072,0.9c-2.052-0.072-3.276-0.108-4.716-0.108
		s-2.7,0.036-5.004,0.108c-0.216-0.108-0.288-0.72,0-0.9l1.296-0.108c2.052-0.18,2.232-0.72,2.232-4.5V4.248z"/>
	<path d="M42.396,16.524c-0.936,0-0.972,0.072-0.972,0.972c0,3.636,2.124,6.732,5.976,6.732c1.188,0,2.196-0.36,3.312-1.764
		c0.36-0.108,0.612,0.108,0.648,0.432c-1.188,2.448-3.78,3.348-5.652,3.348c-2.34,0-4.176-1.008-5.22-2.376
		c-1.08-1.404-1.512-3.096-1.512-4.68c0-4.428,2.916-8.136,7.236-8.136c3.096,0,5.112,2.124,5.112,4.284
		c0,0.504-0.072,0.792-0.144,0.936c-0.108,0.216-0.612,0.252-2.124,0.252H42.396z M44.628,15.444c2.664,0,3.456-0.144,3.744-0.36
		c0.108-0.072,0.216-0.216,0.216-0.684c0-1.008-0.684-2.268-2.772-2.268c-2.124,0-3.96,1.944-3.996,3.132c0,0.072,0,0.18,0.252,0.18
		H44.628z"/>
	<path d="M87.937,13.752c0,5.94-3.672,10.512-8.712,12.024c-0.072,0.18,0.072,0.324,0.288,0.54c1.836,1.764,5.148,4.716,8.028,5.652
		c1.332,0.432,2.52,0.504,3.348,0.504c0.36,0,1.224-0.108,1.728-0.324c0.216,0.036,0.288,0.359,0.18,0.54
		c-1.152,0.647-2.772,0.936-4.032,0.936c-1.656,0-3.708-0.359-5.832-1.332c-2.952-1.368-5.328-3.456-6.66-4.751
		c-1.08-1.08-1.404-1.152-2.412-1.332c-0.936-0.144-2.232-0.36-3.528-0.864c-4.788-1.8-7.704-6.084-7.704-11.232
		c0-7.2,5.4-12.708,12.816-12.708C83.761,1.404,87.937,7.416,87.937,13.752z M84.336,14.868c0-5.94-2.628-12.348-9.504-12.348
		c-3.744,0-8.604,2.556-8.604,10.44c0,5.328,2.592,12.24,9.684,12.24C80.232,25.2,84.336,21.96,84.336,14.868z"/>
	<path d="M94.96,20.448c0,2.484,0.612,4.14,3.348,4.14c0.972,0,2.124-0.396,2.916-1.08c0.468-0.432,0.72-0.972,0.72-2.088v-5.904
		c0-2.34-0.252-2.412-1.332-2.844l-0.468-0.18c-0.252-0.144-0.252-0.648,0.036-0.792c1.44-0.036,3.42-0.288,4.212-0.648
		c0.18,0.036,0.288,0.108,0.324,0.252c-0.072,0.684-0.108,1.8-0.108,3.132v6.048c0,2.844,0.108,3.924,1.116,3.924
		c0.432,0,0.9-0.072,1.404-0.18c0.216,0.18,0.252,0.9-0.036,1.044c-1.404,0.288-3.492,0.648-4.716,1.332
		c-0.18,0-0.36-0.108-0.432-0.252v-1.476c0-0.324-0.108-0.504-0.324-0.504c-1.08,0.684-2.844,1.872-4.968,1.872
		c-3.168,0-4.356-1.584-4.356-4.5v-6.012c0-2.268,0-2.592-1.08-3.06l-0.432-0.18c-0.216-0.18-0.18-0.684,0.072-0.792
		c1.656-0.036,3.06-0.36,3.852-0.648c0.216,0.036,0.324,0.108,0.36,0.252c-0.072,0.612-0.108,1.368-0.108,3.132V20.448z"/>
	<path d="M111.416,15.408c0-1.404,0-1.584-0.972-2.232l-0.324-0.216c-0.144-0.144-0.144-0.54,0.036-0.648
		c0.828-0.288,2.88-1.224,3.708-1.764c0.18,0,0.324,0.072,0.36,0.216c-0.072,1.26-0.144,2.988-0.144,4.464v6.48
		c0,2.592,0.072,2.952,1.368,3.132l0.756,0.108c0.252,0.18,0.18,0.792-0.072,0.9c-1.08-0.072-2.124-0.108-3.384-0.108
		c-1.296,0-2.376,0.036-3.384,0.108c-0.252-0.108-0.324-0.72-0.072-0.9l0.756-0.108c1.332-0.18,1.368-0.54,1.368-3.132V15.408z
		 M114.403,5.148c0,1.296-0.9,1.872-1.908,1.872c-1.116,0-1.836-0.828-1.836-1.8c0-1.188,0.864-1.944,1.944-1.944
		S114.403,4.14,114.403,5.148z"/>
	<path d="M129.631,11.664c0.288,0.252,0.54,0.828,0.54,1.44c0,0.648-0.36,1.332-0.792,1.332c-0.18,0-0.36-0.072-0.504-0.252
		c-0.792-0.972-2.124-1.908-3.6-1.908c-2.52,0-4.968,1.98-4.968,5.796c0,2.808,1.944,6.156,5.796,6.156
		c2.088,0,3.168-0.936,3.996-2.16c0.288-0.072,0.612,0.18,0.648,0.504c-1.224,2.664-3.924,3.672-6.012,3.672
		c-1.908,0-3.672-0.612-4.932-1.836c-1.26-1.224-2.088-2.988-2.088-5.328c0-3.888,2.736-8.028,8.712-8.028
		C127.255,11.052,128.659,11.232,129.631,11.664z"/>
	<path d="M133.908,5.436c0-2.124-0.036-2.34-1.116-2.988l-0.36-0.216c-0.18-0.108-0.18-0.612,0-0.72
		c0.9-0.288,2.592-0.828,3.888-1.512c0.144,0,0.288,0.072,0.36,0.216c-0.036,1.08-0.108,2.88-0.108,4.464v12.348
		c0,0.468,0.036,0.54,0.648,0.54c0.792,0,1.476-0.396,2.448-1.404l1.476-1.584c1.008-1.08,1.26-1.476,1.26-1.656
		c0-0.18-0.18-0.288-0.792-0.36l-0.864-0.108c-0.324-0.108-0.324-0.792,0-0.9h0.828c1.584,0,3.708-0.072,5.724-0.288
		c0.252,0.108,0.288,0.72,0.072,0.9l-1.152,0.216c-0.72,0.144-1.332,0.504-2.268,1.26c-1.404,1.116-2.628,2.412-3.276,3.024
		c-0.432,0.396-0.468,0.576-0.252,0.864c0.612,0.828,1.188,1.512,2.412,2.88c1.404,1.584,2.664,2.988,3.384,3.672
		c0.504,0.468,1.224,0.684,1.872,0.792l0.504,0.072c0.252,0.18,0.216,0.792-0.072,0.9c-1.044-0.072-2.268-0.108-3.42-0.108
		c-1.44,0-2.7,0.036-3.744,0.108c-0.288-0.144-0.324-0.756-0.072-0.9l0.648-0.108c0.54-0.072,0.9-0.144,0.9-0.36
		s-0.144-0.468-0.612-1.008l-3.852-4.464c-0.324-0.36-0.72-0.504-1.116-0.504c-0.648,0-0.684,0.108-0.684,1.224v1.98
		c0,2.592,0.072,2.952,1.368,3.132l0.864,0.108c0.252,0.18,0.18,0.792-0.072,0.9c-1.188-0.072-2.232-0.108-3.492-0.108
		c-1.296,0-2.376,0.036-3.456,0.108c-0.252-0.108-0.324-0.72-0.036-0.9l0.792-0.108c1.332-0.18,1.368-0.54,1.368-3.132V5.436z"/>
	<path d="M161.7,6.66c0-2.664-0.144-3.348-1.764-3.492l-1.152-0.108c-0.288-0.216-0.252-0.756,0.036-0.9
		c1.944-0.18,4.392-0.288,7.74-0.288c2.268,0,4.428,0.18,6.048,1.008c1.548,0.756,2.736,2.196,2.736,4.5
		c0,2.592-1.512,3.924-3.672,4.932c0,0.36,0.288,0.468,0.684,0.54c1.944,0.36,4.824,2.16,4.824,6.012
		c0,4.176-3.096,6.984-9.576,6.984c-1.044,0-2.808-0.108-4.32-0.108c-1.584,0-2.808,0.072-4.14,0.108
		c-0.216-0.108-0.288-0.684-0.072-0.9l0.648-0.108c1.908-0.324,1.98-0.72,1.98-4.5V6.66z M164.651,11.448
		c0,1.008,0.036,1.08,1.872,1.008c3.672-0.144,5.652-1.224,5.652-4.608c0-3.528-2.628-4.86-5.364-4.86
		c-0.792,0-1.332,0.072-1.656,0.216c-0.36,0.108-0.504,0.288-0.504,0.936V11.448z M164.651,19.8c0,1.296,0.072,3.132,0.756,3.924
		c0.684,0.828,1.764,1.008,2.844,1.008c3.204,0,5.652-1.44,5.652-5.04c0-2.844-1.44-6.156-7.164-6.156
		c-1.944,0-2.088,0.216-2.088,0.936V19.8z"/>
	<path d="M181.704,15.408c0-1.404,0-1.584-0.972-2.232l-0.324-0.216c-0.144-0.144-0.144-0.54,0.036-0.648
		c0.828-0.288,2.736-1.224,3.636-1.764c0.181,0.036,0.288,0.108,0.288,0.252v2.088c0,0.18,0.036,0.288,0.108,0.324
		c1.26-1.044,2.628-2.16,3.96-2.16c0.899,0,1.62,0.576,1.62,1.44c0,1.188-0.973,1.656-1.548,1.656c-0.36,0-0.54-0.108-0.792-0.252
		c-0.54-0.36-1.08-0.576-1.584-0.576c-0.576,0-1.009,0.324-1.297,0.72c-0.359,0.504-0.468,1.548-0.468,2.772v4.896
		c0,2.592,0.072,3.024,1.44,3.132l1.296,0.108c0.252,0.18,0.18,0.792-0.072,0.9c-1.692-0.072-2.736-0.108-3.996-0.108
		c-1.296,0-2.376,0.036-3.312,0.108c-0.252-0.108-0.324-0.72-0.072-0.9l0.684-0.108c1.332-0.216,1.368-0.54,1.368-3.132V15.408z"/>
	<path d="M205.835,18.504c0,4.5-3.097,7.74-7.597,7.74c-4.14,0-7.38-2.916-7.38-7.416c0-4.536,3.42-7.776,7.668-7.776
		C202.559,11.052,205.835,14.076,205.835,18.504z M198.095,12.132c-2.376,0-4.14,2.268-4.14,6.228c0,3.276,1.476,6.804,4.644,6.804
		s4.14-3.312,4.14-6.084C202.738,16.02,201.515,12.132,198.095,12.132z"/>
	<path d="M209.021,15.048c-0.828-2.016-1.26-2.376-2.16-2.592l-0.576-0.144c-0.18-0.18-0.216-0.72,0.108-0.864
		c1.116,0.072,2.124,0.108,3.204,0.108c1.115,0,2.16-0.036,3.132-0.108c0.288,0.144,0.324,0.684,0.072,0.864l-0.828,0.144
		c-0.504,0.072-0.792,0.288-0.792,0.504s0.18,0.9,0.576,1.872l2.231,5.508c0.324,0.828,0.648,1.476,0.648,1.548
		c0.107-0.072,0.396-0.684,0.828-1.728l1.764-4.356c0.468-1.152,0.504-1.62,0.324-2.088c-0.324-0.792-0.864-1.08-1.656-1.26
		l-0.576-0.144c-0.252-0.216-0.18-0.756,0.108-0.864c0.899,0.072,2.052,0.108,2.987,0.108c1.116,0,2.196-0.036,3.42-0.108
		c0.324,0.108,0.324,0.684,0.108,0.864l-0.756,0.144c-1.44,0.288-1.368,0.396-0.937,1.656c0.396,1.188,2.341,5.76,2.736,6.732
		c0.216,0.54,0.36,0.936,0.468,1.008c0.072-0.072,0.252-0.432,0.504-1.008c0.469-1.044,1.908-4.86,2.448-6.372
		c0.288-0.828,0.36-1.296,0.36-1.548c0-0.216-0.216-0.396-0.648-0.468l-0.899-0.144c-0.288-0.18-0.216-0.756,0.036-0.864
		c1.044,0.072,1.943,0.108,2.844,0.108c0.684,0,1.548-0.036,2.34-0.108c0.288,0.144,0.324,0.684,0.108,0.864l-0.721,0.144
		c-0.863,0.18-1.188,0.684-1.943,2.268c-0.973,2.016-2.7,6.336-3.385,8.172c-0.504,1.296-0.936,2.34-1.224,3.276
		c-0.144,0.108-0.288,0.144-0.468,0.144c-0.145,0-0.288-0.036-0.396-0.144c-0.216-0.648-0.863-2.52-1.476-3.96l-1.729-4.14
		c-0.252-0.648-0.792-1.836-0.827-1.836c-0.036,0-0.54,1.116-0.792,1.764l-1.872,4.5c-0.648,1.548-1.152,2.844-1.44,3.672
		c-0.108,0.108-0.252,0.144-0.432,0.144c-0.145,0-0.324-0.036-0.433-0.144c-0.216-0.756-0.792-2.232-1.08-2.988L209.021,15.048z"/>
	<path d="M233.863,15.408c0-1.404,0-1.584-0.972-2.232l-0.324-0.216c-0.144-0.144-0.144-0.54,0.036-0.648
		c0.828-0.288,2.88-1.224,3.6-1.764c0.145,0,0.324,0.072,0.396,0.252c-0.072,0.828-0.072,1.368-0.072,1.692
		c0,0.216,0.145,0.396,0.396,0.396c1.512-0.936,3.204-1.836,5.04-1.836c2.987,0,4.212,2.052,4.212,4.464v6.192
		c0,2.592,0.072,2.952,1.368,3.132l0.792,0.108c0.252,0.18,0.18,0.792-0.072,0.9c-1.08-0.072-2.124-0.108-3.384-0.108
		c-1.296,0-2.376,0.036-3.349,0.108c-0.252-0.108-0.323-0.72-0.071-0.9l0.684-0.108c1.332-0.216,1.368-0.54,1.368-3.132v-5.364
		c0-2.052-0.937-3.564-3.384-3.564c-1.368,0-2.557,0.576-3.061,1.26c-0.468,0.612-0.54,1.116-0.54,2.16v5.508
		c0,2.592,0.072,2.916,1.368,3.132l0.648,0.108c0.252,0.18,0.18,0.792-0.072,0.9c-0.973-0.072-2.017-0.108-3.276-0.108
		c-1.296,0-2.376,0.036-3.384,0.108c-0.252-0.108-0.324-0.72-0.072-0.9l0.756-0.108c1.332-0.18,1.368-0.54,1.368-3.132V15.408z"/>
	<path d="M7.56,55.332c0,0.972,0.108,0.972,1.188,0.972h2.448c1.476,0,2.628-0.072,3.06-0.216c0.396-0.144,0.684-0.324,0.9-1.26
		l0.324-1.44c0.18-0.216,0.792-0.216,0.936,0c0,0.864-0.144,2.304-0.144,3.636c0,1.297,0.144,2.664,0.144,3.492
		c-0.144,0.216-0.684,0.216-0.936,0l-0.36-1.403c-0.18-0.648-0.468-1.152-1.152-1.368c-0.504-0.145-1.404-0.181-2.772-0.181H8.749
		c-1.08,0-1.188,0.036-1.188,0.973v5.004c0,3.78,0.072,4.32,2.196,4.5l1.224,0.107c0.216,0.145,0.144,0.793-0.072,0.9
		C8.784,68.975,7.56,68.94,6.12,68.94c-1.584,0-2.808,0.035-4.5,0.107c-0.216-0.107-0.288-0.684-0.072-0.9l0.9-0.107
		c2.088-0.252,2.16-0.72,2.16-4.5V50.58c0-3.78-0.072-4.284-2.16-4.536l-0.576-0.072c-0.216-0.144-0.144-0.792,0.072-0.9
		c1.512,0.072,2.736,0.108,4.176,0.108h6.624c2.304,0,4.392,0,4.86-0.108c0,1.656,0.036,3.385,0.108,4.753
		c-0.108,0.216-0.612,0.323-0.864,0.107c-0.288-1.62-0.72-2.952-2.52-3.42c-0.792-0.216-1.98-0.216-3.492-0.216H8.64
		c-1.08,0-1.08,0.072-1.08,1.439V55.332z"/>
	<path d="M34.628,61.704c0,4.5-3.096,7.74-7.596,7.74c-4.14,0-7.38-2.916-7.38-7.416c0-4.536,3.42-7.776,7.668-7.776
		C31.353,54.251,34.628,57.275,34.628,61.704z M26.888,55.332c-2.376,0-4.14,2.268-4.14,6.228c0,3.276,1.476,6.805,4.644,6.805
		s4.14-3.312,4.14-6.084C31.532,59.219,30.309,55.332,26.888,55.332z"/>
	<path d="M38.044,57.204c-0.54-0.792-1.152-1.368-2.16-1.548l-0.576-0.108c-0.216-0.18-0.18-0.792,0.072-0.9
		c1.404,0.072,2.232,0.108,3.132,0.108c0.864,0,1.656-0.036,3.06-0.108c0.252,0.145,0.252,0.721,0.036,0.9l-0.54,0.108
		c-0.972,0.18-0.936,0.396-0.324,1.26l1.728,2.52c0.144,0.217,0.36,0.504,0.468,0.612c0.144-0.108,1.332-1.908,2.088-3.06
		c0.612-0.937,0.504-1.116-0.288-1.332l-0.432-0.108c-0.216-0.216-0.144-0.792,0.144-0.9c0.828,0.072,1.764,0.108,2.628,0.108
		c0.828,0,1.944-0.036,2.628-0.108c0.288,0.145,0.288,0.721,0.072,0.9l-0.54,0.108c-0.864,0.18-1.404,0.288-1.8,0.611
		c-0.612,0.504-1.944,2.16-3.384,4.104c-0.432,0.576-0.432,0.684,0.036,1.332l3.348,4.716c0.828,1.152,1.404,1.62,2.376,1.692
		l0.576,0.035c0.216,0.217,0.18,0.793-0.072,0.9c-1.332-0.072-2.52-0.107-3.564-0.107c-1.332,0-2.268,0.035-3.42,0.107
		c-0.288-0.107-0.36-0.72-0.108-0.9l1.044-0.107c1.044-0.108,1.08-0.432,0.612-1.08l-1.872-2.7
		c-0.432-0.647-0.648-0.936-0.792-1.044c-0.108,0.108-0.396,0.468-0.648,0.864l-1.512,2.376c-0.72,1.152-0.792,1.439,0.108,1.584
		l0.612,0.107c0.216,0.181,0.18,0.793-0.072,0.9c-0.9-0.072-1.8-0.107-2.664-0.107c-0.9,0-1.692,0.035-2.628,0.107
		c-0.288-0.144-0.324-0.756-0.072-0.9l0.828-0.144c0.648-0.108,1.152-0.396,1.8-1.08c0.756-0.792,2.376-3.204,3.204-4.212
		c0.324-0.396,0.396-0.54,0.108-0.936L38.044,57.204z"/>
	<path d="M64.612,50.651c0-3.995-0.36-4.428-2.484-4.607l-0.9-0.072c-0.216-0.144-0.144-0.792,0.072-0.9
		c2.088,0.072,3.312,0.108,4.824,0.108c1.44,0,2.664-0.036,4.104-0.108c0.216,0.108,0.288,0.757,0.072,0.9l-0.54,0.072
		c-2.124,0.288-2.196,0.792-2.196,4.607v13.356c0,2.844-0.144,5.328-0.828,6.984c-1.188,2.88-3.744,5.184-7.092,5.184
		c-0.432,0-1.548-0.036-1.548-0.756c0-0.612,0.54-1.656,1.296-1.656c0.432,0,0.864,0.072,1.332,0.216
		c0.504,0.145,1.008,0.253,1.512,0.253c0.756,0,1.188-0.433,1.44-0.937c0.828-1.692,0.936-7.092,0.936-9.036V50.651z"/>
	<path d="M76.308,63.647c0,2.484,0.612,4.141,3.348,4.141c0.972,0,2.124-0.396,2.916-1.08c0.468-0.432,0.72-0.972,0.72-2.088v-5.904
		c0-2.34-0.252-2.412-1.332-2.844l-0.468-0.181c-0.252-0.144-0.252-0.647,0.036-0.792c1.44-0.035,3.42-0.287,4.212-0.647
		c0.18,0.036,0.288,0.107,0.324,0.252c-0.072,0.684-0.108,1.8-0.108,3.132v6.048c0,2.845,0.108,3.925,1.116,3.925
		c0.432,0,0.9-0.072,1.404-0.181c0.216,0.181,0.252,0.9-0.036,1.044c-1.404,0.288-3.492,0.648-4.716,1.332
		c-0.18,0-0.36-0.107-0.432-0.252v-1.476c0-0.324-0.108-0.504-0.324-0.504c-1.08,0.684-2.844,1.872-4.968,1.872
		c-3.168,0-4.356-1.584-4.356-4.5v-6.013c0-2.268,0-2.592-1.08-3.06l-0.432-0.181c-0.216-0.18-0.18-0.684,0.072-0.792
		c1.656-0.035,3.06-0.359,3.852-0.647c0.216,0.036,0.324,0.107,0.36,0.252c-0.072,0.612-0.108,1.368-0.108,3.132V63.647z"/>
	<path d="M111.901,59.687c0-2.447-1.08-3.708-3.348-3.708c-1.368,0-2.484,0.612-2.988,1.261c-0.432,0.54-0.54,0.899-0.54,2.159
		v5.509c0,2.592,0.072,2.952,1.368,3.132l0.756,0.107c0.252,0.181,0.18,0.793-0.072,0.9c-1.08-0.072-2.124-0.107-3.384-0.107
		c-1.296,0-2.268,0.035-3.276,0.107c-0.252-0.107-0.324-0.72-0.072-0.9l0.648-0.107c1.332-0.216,1.368-0.54,1.368-3.132v-5.221
		c0-2.412-1.08-3.708-3.312-3.708c-1.476,0-2.484,0.648-3.024,1.296c-0.36,0.433-0.54,0.9-0.54,2.053v5.58
		c0,2.592,0.072,2.916,1.368,3.132l0.648,0.107c0.252,0.181,0.18,0.793-0.072,0.9c-0.972-0.072-2.016-0.107-3.276-0.107
		c-1.296,0-2.376,0.035-3.492,0.107c-0.252-0.107-0.324-0.72-0.072-0.9l0.864-0.107c1.332-0.18,1.368-0.54,1.368-3.132v-6.301
		c0-1.403,0-1.584-0.972-2.231l-0.324-0.216c-0.144-0.145-0.144-0.54,0.036-0.648c0.828-0.288,2.88-1.224,3.6-1.764
		c0.144,0,0.324,0.072,0.396,0.252c-0.072,0.828-0.072,1.368-0.072,1.691c0,0.217,0.144,0.396,0.396,0.396
		c1.368-0.972,3.06-1.836,4.788-1.836c1.8,0,2.808,0.647,3.816,2.124c0.324,0.072,0.576-0.072,0.9-0.288
		c1.44-1.008,3.204-1.836,4.896-1.836c2.88,0,4.284,1.979,4.284,4.464v6.192c0,2.592,0.072,2.952,1.368,3.132l0.864,0.107
		c0.252,0.181,0.18,0.793-0.072,0.9c-1.188-0.072-2.232-0.107-3.492-0.107c-1.296,0-2.268,0.035-3.276,0.107
		c-0.252-0.107-0.324-0.72-0.072-0.9l0.648-0.107c1.332-0.216,1.368-0.54,1.368-3.132V59.687z"/>
	<path d="M119.816,58.607c0-1.403,0-1.584-0.972-2.231l-0.324-0.216c-0.144-0.145-0.144-0.54,0.036-0.648
		c0.936-0.396,2.628-1.26,3.564-1.944c0.216,0,0.36,0.072,0.432,0.253c-0.072,0.647-0.144,1.188-0.144,1.655
		c0,0.252,0.072,0.469,0.324,0.469c0.468-0.217,2.736-1.692,5.04-1.692c3.636,0,5.976,2.952,5.976,6.588
		c0,5.004-3.672,8.604-8.784,8.604c-0.648,0-1.656-0.072-1.98-0.145c-0.324,0.072-0.504,0.252-0.504,1.008v3.78
		c0,2.556,0.072,2.88,1.368,3.061l1.404,0.18c0.252,0.18,0.18,0.792-0.072,0.899c-1.728-0.071-2.772-0.107-4.032-0.107
		c-1.296,0-2.376,0.036-3.384,0.107c-0.252-0.107-0.324-0.72-0.072-0.899l0.756-0.108c1.332-0.18,1.368-0.54,1.368-3.132V58.607z
		 M122.48,65.303c0,1.152,0.36,1.584,1.08,2.16c0.72,0.54,1.836,0.792,2.592,0.792c2.952,0,4.68-2.736,4.68-6.479
		c0-2.881-1.62-5.797-4.86-5.797c-1.548,0-2.664,0.576-3.06,1.009c-0.324,0.396-0.432,0.936-0.432,2.124V65.303z"/>
	<path d="M144.588,54.899c0.324,0.792,0.576,1.944,0.576,2.916c-0.144,0.252-0.684,0.324-0.864,0.108
		c-0.612-1.584-1.692-2.628-3.168-2.628c-1.404,0-2.304,0.9-2.304,2.196c0,1.476,1.512,2.268,2.772,2.987
		c1.908,1.08,3.672,2.305,3.672,4.86c0,2.736-2.52,4.104-5.184,4.104c-1.692,0-2.952-0.36-3.852-1.08
		c-0.288-0.685-0.504-2.448-0.432-3.637c0.18-0.216,0.648-0.252,0.828-0.035c0.612,1.979,1.764,3.708,3.816,3.708
		c1.296,0,2.412-0.757,2.412-2.305c0-1.656-1.44-2.556-2.772-3.312c-2.088-1.188-3.564-2.448-3.564-4.429
		c0-2.628,2.16-4.104,4.896-4.104C142.932,54.251,144.264,54.612,144.588,54.899z"/>
	<path d="M157.008,57.311c0-7.2,5.4-12.708,12.816-12.708c8.316,0,12.492,6.013,12.492,12.349c0,7.271-5.544,12.563-12.492,12.563
		C161.832,69.515,157.008,63.792,157.008,57.311z M178.716,58.067c0-5.939-2.628-12.348-9.504-12.348
		c-3.744,0-8.604,2.556-8.604,10.44c0,5.328,2.592,12.24,9.684,12.24C174.612,68.4,178.716,65.16,178.716,58.067z"/>
	<path d="M187.334,58.32c-0.54-1.332-0.864-2.484-2.16-2.664l-0.72-0.108c-0.216-0.288-0.181-0.792,0.107-0.9
		c0.9,0.072,2.16,0.108,3.385,0.108c0.972,0,1.691-0.036,2.916-0.108c0.252,0.145,0.287,0.721,0.035,0.9l-0.432,0.072
		c-1.116,0.18-1.152,0.359-0.792,1.439c0.828,2.484,1.872,5.004,2.7,6.876c0.324,0.721,0.468,1.044,0.576,1.152
		c0.144-0.108,0.396-0.612,0.684-1.368c0.468-1.224,1.692-4.355,2.052-5.292c0.504-1.26,0.648-2.016,0.648-2.231
		c0-0.324-0.216-0.469-0.648-0.54l-0.828-0.108c-0.216-0.252-0.18-0.756,0.072-0.9c1.116,0.072,2.017,0.108,2.7,0.108
		c0.9,0,1.512-0.036,2.521-0.108c0.252,0.145,0.287,0.685,0.071,0.9l-0.54,0.072c-1.26,0.18-1.584,1.116-2.628,3.132
		c-0.504,0.972-2.735,6.192-3.312,7.668c-0.36,0.9-0.721,1.728-1.188,2.952c-0.072,0.107-0.216,0.144-0.359,0.144
		c-0.181,0-0.36-0.036-0.469-0.144c-0.288-1.008-0.828-2.412-1.368-3.744L187.334,58.32z"/>
	<path d="M203.879,59.723c-0.936,0-0.972,0.072-0.972,0.973c0,3.636,2.124,6.731,5.976,6.731c1.188,0,2.196-0.359,3.312-1.764
		c0.36-0.108,0.612,0.107,0.648,0.432c-1.188,2.448-3.78,3.349-5.652,3.349c-2.34,0-4.176-1.009-5.22-2.376
		c-1.08-1.404-1.513-3.097-1.513-4.681c0-4.428,2.916-8.136,7.236-8.136c3.096,0,5.112,2.124,5.112,4.284
		c0,0.504-0.072,0.792-0.145,0.936c-0.107,0.216-0.611,0.252-2.124,0.252H203.879z M206.111,58.643c2.664,0,3.456-0.144,3.744-0.359
		c0.107-0.072,0.216-0.217,0.216-0.685c0-1.008-0.684-2.268-2.772-2.268c-2.124,0-3.96,1.943-3.995,3.132c0,0.072,0,0.18,0.252,0.18
		H206.111z"/>
	<path d="M216.472,58.607c0-1.403,0-1.584-0.972-2.231l-0.324-0.216c-0.144-0.145-0.144-0.54,0.036-0.648
		c0.828-0.288,2.736-1.224,3.636-1.764c0.181,0.036,0.288,0.107,0.288,0.252v2.088c0,0.18,0.036,0.288,0.108,0.324
		c1.26-1.044,2.628-2.16,3.96-2.16c0.899,0,1.62,0.576,1.62,1.439c0,1.188-0.973,1.656-1.548,1.656c-0.36,0-0.54-0.107-0.792-0.252
		c-0.54-0.359-1.08-0.576-1.584-0.576c-0.576,0-1.009,0.324-1.297,0.721c-0.359,0.504-0.468,1.548-0.468,2.771v4.896
		c0,2.592,0.072,3.023,1.44,3.132l1.296,0.107c0.252,0.181,0.18,0.793-0.072,0.9c-1.692-0.072-2.736-0.107-3.996-0.107
		c-1.296,0-2.376,0.035-3.312,0.107c-0.252-0.107-0.324-0.72-0.072-0.9l0.684-0.107c1.332-0.216,1.368-0.54,1.368-3.132V58.607z"/>
	<path d="M10.656,90.648c0-1.116,0-1.152-1.08-1.152h-2.34c-1.548,0-3.528,0.072-4.428,0.899c-0.864,0.793-1.224,1.585-1.62,2.484
		c-0.288,0.216-0.792,0.036-0.936-0.252c0.576-1.62,1.116-3.924,1.368-5.364c0.108-0.071,0.576-0.107,0.684,0
		c0.216,1.152,1.404,1.116,3.06,1.116h14.94c1.98,0,2.556-0.216,2.664-0.504v-0.504L25.38,86.4c0.144,0,0.288,0.071,0.36,0.216
		c-0.036,1.08-0.108,2.88-0.108,4.464v7.56c0,0.324,0.036,0.612,0.144,0.685c1.296-1.008,3.024-1.872,4.86-1.872
		c3.42,0,4.644,2.124,4.644,4.644v6.013c0,2.592,0.072,2.987,1.368,3.132l0.972,0.107c0.252,0.181,0.18,0.793-0.072,0.9
		c-1.296-0.072-2.34-0.107-3.6-0.107c-1.296,0-2.376,0.035-3.348,0.107c-0.252-0.107-0.324-0.72-0.072-0.9l0.72-0.107
		c1.332-0.216,1.368-0.54,1.368-3.132v-5.148c0-2.304-1.116-3.852-3.42-3.852c-1.224,0-2.16,0.432-2.808,0.972
		c-0.648,0.54-0.756,0.72-0.756,1.98v6.048c0,2.592,0.072,2.952,1.368,3.132l0.756,0.107c0.252,0.145,0.18,0.793-0.072,0.9
		c-1.08-0.072-2.124-0.107-3.384-0.107c-1.296,0-2.376,0.035-3.528,0.107c-0.252-0.107-0.324-0.72-0.072-0.9l0.9-0.107
		c1.332-0.145,1.368-0.54,1.368-3.132V92.015c0-2.268-0.828-2.52-5.04-2.52h-3.276c-1.08,0-1.044,0.036-1.044,1.224v16.021
		c0,3.78,0.072,4.32,2.16,4.5l1.152,0.107c0.216,0.145,0.144,0.793-0.072,0.9c-2.052-0.072-3.276-0.107-4.716-0.107
		s-2.7,0.035-5.004,0.107c-0.216-0.107-0.288-0.72,0-0.9l1.296-0.107c2.052-0.18,2.232-0.72,2.232-4.5V90.648z"/>
	<path d="M42.396,102.923c-0.936,0-0.972,0.072-0.972,0.973c0,3.636,2.124,6.731,5.976,6.731c1.188,0,2.196-0.359,3.312-1.764
		c0.36-0.108,0.612,0.107,0.648,0.432c-1.188,2.448-3.78,3.349-5.652,3.349c-2.34,0-4.176-1.009-5.22-2.376
		c-1.08-1.404-1.512-3.097-1.512-4.681c0-4.428,2.916-8.136,7.236-8.136c3.096,0,5.112,2.124,5.112,4.284
		c0,0.504-0.072,0.792-0.144,0.936c-0.108,0.216-0.612,0.252-2.124,0.252H42.396z M44.628,101.843c2.664,0,3.456-0.144,3.744-0.359
		c0.108-0.072,0.216-0.217,0.216-0.685c0-1.008-0.684-2.268-2.772-2.268c-2.124,0-3.96,1.943-3.996,3.132c0,0.072,0,0.18,0.252,0.18
		H44.628z"/>
	<path d="M65.581,93.78c0-3.78-0.072-4.356-2.34-4.536l-0.9-0.072c-0.216-0.144-0.144-0.792,0.072-0.9
		c2.016,0.072,3.24,0.108,4.68,0.108c1.404,0,2.628-0.036,4.428-0.108c0.216,0.108,0.288,0.757,0.072,0.9l-0.864,0.072
		c-2.124,0.18-2.196,0.756-2.196,4.536v12.527c0,2.269,0.108,3.204,0.756,3.889c0.396,0.396,1.08,0.828,3.924,0.828
		c3.06,0,3.816-0.145,4.392-0.469c0.72-0.432,1.656-1.728,2.376-3.563c0.216-0.18,0.9-0.036,0.9,0.216
		c0,0.396-1.008,4.068-1.512,5.04c-1.836-0.072-5.256-0.107-8.964-0.107h-3.312c-1.512,0-2.664,0.035-4.68,0.107
		c-0.216-0.107-0.288-0.684-0.072-0.9l1.08-0.107c2.088-0.216,2.16-0.72,2.16-4.5V93.78z"/>
	<path d="M89.898,104.688c0.54-0.181,0.612-0.505,0.612-1.044l0.036-1.656c0.036-1.332-0.396-3.132-2.628-3.132
		c-1.008,0-2.232,0.504-2.304,1.619c-0.036,0.576-0.072,1.009-0.36,1.225c-0.54,0.432-1.512,0.684-2.052,0.684
		c-0.324,0-0.504-0.18-0.504-0.504c0-1.872,4.068-4.428,6.696-4.428c2.592,0,3.852,1.512,3.744,4.212l-0.216,6.264
		c-0.072,1.656,0.252,3.133,1.656,3.133c0.36,0,0.684-0.108,0.9-0.217c0.18-0.107,0.36-0.252,0.468-0.252
		c0.144,0,0.252,0.217,0.252,0.469c0,0.18-1.26,1.584-3.024,1.584c-0.864,0-1.728-0.324-2.34-1.116
		c-0.144-0.216-0.36-0.504-0.576-0.504c-0.252,0-0.684,0.323-1.404,0.72c-0.792,0.432-1.584,0.9-2.592,0.9
		c-1.044,0-1.908-0.288-2.52-0.828c-0.684-0.612-1.116-1.513-1.116-2.521c0-1.403,0.684-2.231,2.988-3.06L89.898,104.688z
		 M87.667,111.024c0.72,0,1.836-0.54,2.196-0.9c0.432-0.432,0.432-0.936,0.468-1.692l0.072-2.124c0-0.396-0.144-0.468-0.36-0.468
		s-0.828,0.145-1.476,0.36c-2.124,0.72-3.168,1.26-3.168,2.664C85.398,109.476,85.831,111.024,87.667,111.024z"/>
	<path d="M101.494,112.14c-1.944,0-3.348,0.035-3.78,0.107c-0.144-0.072-0.216-0.216-0.216-0.36c0.72-0.863,2.376-3.42,3.456-5.292
		l3.816-6.479c0.576-1.008,0.324-1.08-0.324-1.08h-2.484c-1.08,0-1.944,0.108-2.484,0.54c-0.612,0.468-0.972,1.296-1.296,2.088
		c-0.18,0.216-0.72,0.144-0.828-0.144c0.072-0.937,0.684-3.349,1.188-4.213c0.108-0.071,0.324-0.071,0.432,0
		c0.108,0.612,0.504,0.648,2.556,0.648h5.112c0.972,0,1.656,0,2.196-0.108c0.144,0.072,0.216,0.181,0.18,0.36
		c-0.756,1.044-1.62,2.376-2.664,4.104l-4.356,7.308c-0.756,1.296-0.684,1.44,0.684,1.44h1.224c1.404,0,3.24,0,4.248-1.08
		c0.396-0.433,0.756-1.188,1.152-2.088c0.252-0.145,0.684-0.072,0.792,0.216c-0.324,1.764-0.864,3.456-1.332,4.14
		c-1.188-0.072-2.376-0.107-4.032-0.107H101.494z"/>
	<path d="M111.48,119.556c0-0.973,0.648-1.44,1.44-1.44h0.684c0.576,0,0.936-0.252,1.188-0.648c1.044-1.619,1.764-3.132,2.088-3.996
		c0.108-0.287,0.36-1.044,0.36-1.548c0-0.72-0.144-1.151-0.612-2.483l-2.808-7.704c-0.612-1.692-0.864-2.557-2.124-2.809l-0.9-0.18
		c-0.216-0.18-0.18-0.792,0.108-0.9c1.152,0.072,2.232,0.108,3.42,0.108c0.972,0,1.98-0.036,3.132-0.108
		c0.288,0.108,0.324,0.721,0.072,0.9l-0.9,0.18c-0.504,0.108-0.792,0.217-0.792,0.469c0,0.432,0.828,2.771,1.044,3.384l1.152,3.312
		c0.216,0.576,0.9,2.484,1.044,2.557c0.108-0.072,0.684-1.188,1.332-2.664l1.224-2.845c0.792-1.872,1.26-3.203,1.26-3.6
		c0-0.252-0.216-0.504-0.864-0.612l-1.116-0.18c-0.252-0.18-0.216-0.792,0.072-0.9c1.152,0.072,2.232,0.108,3.168,0.108
		c0.9,0,1.728-0.036,2.736-0.108c0.288,0.145,0.324,0.685,0.072,0.9l-0.612,0.108c-1.188,0.216-1.836,1.26-3.06,3.815l-2.016,4.141
		c-1.188,2.411-4.14,8.676-5.904,12.6c-0.612,1.368-1.476,1.692-2.304,1.692C112.02,121.104,111.48,120.456,111.48,119.556z"/>
	<path d="M139.992,93.059c0-2.52-0.18-3.275-1.692-3.491l-0.792-0.108c-0.288-0.18-0.324-0.756,0.036-0.9
		c3.06-0.18,5.976-0.288,9.036-0.288c3.024,0,5.58,0.217,7.92,1.08c4.86,1.765,7.308,5.868,7.308,10.62
		c0,4.572-2.196,8.496-6.3,10.729c-2.34,1.26-5.292,1.728-8.064,1.728c-2.304,0-4.608-0.287-5.868-0.287
		c-1.512,0-2.808,0.035-4.5,0.107c-0.216-0.107-0.288-0.684-0.072-0.9l0.828-0.107c2.088-0.288,2.16-0.72,2.16-4.5V93.059z
		 M142.943,105.912c0,1.908,0.108,3.06,0.72,3.924c0.792,1.116,2.16,1.477,4.428,1.477c6.984,0,10.116-4.572,10.116-11.269
		c0-3.96-1.908-10.656-11.34-10.656c-2.124,0-3.276,0.288-3.564,0.504c-0.288,0.217-0.36,1.116-0.36,2.736V105.912z"/>
	<path d="M179.314,104.904c0,4.5-3.097,7.74-7.596,7.74c-4.14,0-7.38-2.916-7.38-7.416c0-4.536,3.42-7.776,7.668-7.776
		C176.038,97.452,179.314,100.475,179.314,104.904z M171.574,98.532c-2.376,0-4.14,2.268-4.14,6.228
		c0,3.276,1.476,6.805,4.644,6.805c3.167,0,4.139-3.312,4.139-6.084C176.218,102.419,174.994,98.532,171.574,98.532z"/>
	<path d="M196.165,98.748c0.396,0.18,0.324,1.404-0.216,1.476h-2.592c0.072,0.612,0.072,1.225,0.072,1.837
		c0,2.483-1.477,5.724-6.048,5.724c-0.648,0-1.152-0.072-1.584-0.108c-0.433,0.252-1.584,0.937-1.584,1.98
		c0,0.828,0.827,1.512,2.52,1.512c1.224,0,2.7-0.107,4.284-0.107c2.016,0,5.04,0.359,5.04,3.96c0,3.924-4.284,6.804-8.964,6.804
		c-4.429,0-5.977-2.376-5.977-4.176c0-0.576,0.145-1.044,0.396-1.332c0.611-0.648,1.62-1.584,2.447-2.412
		c0.324-0.324,0.612-0.648,0.288-0.864c-1.403-0.36-2.628-1.584-2.628-2.844c0-0.18,0.145-0.324,0.54-0.612
		c0.612-0.396,1.296-1.008,1.908-1.656c0.18-0.216,0.36-0.504,0.36-0.684c-1.225-0.648-2.7-2.052-2.7-4.356
		c0-3.096,2.664-5.436,5.868-5.436c1.368,0,2.628,0.36,3.456,0.72c1.151,0.504,1.403,0.576,2.195,0.576H196.165z M188.642,113.292
		c-1.152,0-2.592,0.072-3.096,0.396c-0.864,0.54-1.729,1.655-1.729,3.023c0,1.944,1.548,3.564,4.824,3.564
		c3.204,0,5.328-1.8,5.328-3.853c0-2.195-1.513-3.132-4.104-3.132H188.642z M190.873,102.996c0-2.448-1.008-4.5-3.204-4.5
		c-1.728,0-3.023,1.584-3.023,4.032c0,2.556,1.548,4.212,3.276,4.212C189.865,106.74,190.873,105.192,190.873,102.996z"/>
	<path d="M197.973,110.664c0-1.224,0.864-2.124,2.017-2.124c1.224,0,2.016,0.972,2.016,2.124s-0.792,1.98-2.016,1.98
		C198.944,112.644,197.973,111.887,197.973,110.664z"/>
</g>
<g>
	<path d="M340.461,8.365c1.98,0.9,1.62,7.02-1.08,7.38h-12.96c0.36,3.06,0.36,6.12,0.36,9.18c0,12.42-7.38,28.62-30.24,28.62
		c-3.24,0-5.76-0.36-7.92-0.54c-2.16,1.26-7.92,4.68-7.92,9.899c0,4.141,4.14,7.561,12.6,7.561c6.12,0,13.5-0.54,21.421-0.54
		c10.079,0,25.199,1.8,25.199,19.8c0,19.62-21.42,34.021-44.819,34.021c-22.141,0-29.881-11.88-29.881-20.88
		c0-2.881,0.721-5.221,1.98-6.66c3.06-3.24,8.1-7.92,12.24-12.061c1.62-1.62,3.06-3.24,1.439-4.319
		c-7.02-1.801-13.14-7.921-13.14-14.221c0-0.899,0.72-1.62,2.7-3.06c3.06-1.98,6.479-5.04,9.54-8.28c0.899-1.08,1.8-2.52,1.8-3.42
		c-6.12-3.24-13.5-10.26-13.5-21.78c0-15.479,13.32-27.18,29.34-27.18c6.84,0,13.141,1.8,17.28,3.6c5.76,2.52,7.02,2.88,10.979,2.88
		H340.461z M302.841,81.085c-5.76,0-12.96,0.359-15.479,1.979c-4.32,2.7-8.641,8.28-8.641,15.12c0,9.72,7.74,17.82,24.12,17.82
		c16.021,0,26.641-9,26.641-19.26c0-10.98-7.561-15.66-20.521-15.66H302.841z M314.001,29.605c0-12.24-5.04-22.5-16.02-22.5
		c-8.641,0-15.12,7.92-15.12,20.16c0,12.78,7.74,21.06,16.38,21.06C308.961,48.325,314.001,40.585,314.001,29.605z"/>
</g>
<g>
	<path d="M8.653,153.875c-0.14-0.439-0.22-0.5-0.82-0.5h-3.02c-0.5,0-0.62,0.061-0.76,0.48l-0.7,2.1c-0.3,0.9-0.44,1.44-0.44,1.66
		c0,0.24,0.1,0.36,0.58,0.4l0.66,0.06c0.14,0.1,0.14,0.42-0.04,0.5c-0.52-0.04-1.14-0.04-2.08-0.06c-0.66,0-1.38,0.039-1.92,0.06
		c-0.12-0.08-0.16-0.4-0.04-0.5l0.66-0.06c0.48-0.04,0.92-0.261,1.2-0.98c0.36-0.92,0.92-2.22,1.76-4.46l2.04-5.4
		c0.28-0.72,0.4-1.1,0.34-1.42c0.48-0.14,0.82-0.5,1.04-0.76c0.12,0,0.26,0.04,0.3,0.18c0.26,0.88,0.58,1.801,0.88,2.681l2.74,8.04
		c0.58,1.72,0.84,2.02,1.7,2.12l0.54,0.06c0.14,0.1,0.1,0.42,0,0.5c-0.82-0.04-1.52-0.06-2.42-0.06c-0.96,0-1.72,0.039-2.3,0.06
		c-0.16-0.08-0.18-0.4-0.04-0.5l0.58-0.06c0.42-0.04,0.7-0.16,0.7-0.36c0-0.22-0.1-0.58-0.26-1.061L8.653,153.875z M4.693,152.094
		c-0.16,0.46-0.14,0.48,0.42,0.48h2.46c0.58,0,0.62-0.08,0.44-0.62l-1.08-3.26c-0.16-0.48-0.34-1.021-0.46-1.26h-0.04
		c-0.06,0.1-0.26,0.58-0.48,1.18L4.693,152.094z"/>
	<path d="M16.09,147.915c0-1.479-0.08-1.86-0.98-1.939l-0.64-0.061c-0.16-0.12-0.14-0.42,0.02-0.5c1.08-0.1,2.44-0.16,4.3-0.16
		c1.26,0,2.46,0.101,3.36,0.561c0.86,0.42,1.52,1.22,1.52,2.5c0,1.439-0.84,2.18-2.04,2.739c0,0.2,0.16,0.261,0.38,0.301
		c1.08,0.199,2.68,1.199,2.68,3.34c0,2.32-1.72,3.88-5.32,3.88c-0.58,0-1.56-0.06-2.4-0.06c-0.88,0-1.56,0.039-2.3,0.06
		c-0.12-0.06-0.16-0.38-0.04-0.5l0.36-0.06c1.06-0.181,1.1-0.4,1.1-2.5V147.915z M17.73,150.575c0,0.56,0.02,0.6,1.04,0.56
		c2.04-0.08,3.14-0.68,3.14-2.56c0-1.96-1.46-2.7-2.98-2.7c-0.44,0-0.74,0.04-0.92,0.12c-0.2,0.06-0.28,0.16-0.28,0.521V150.575z
		 M17.73,155.214c0,0.721,0.04,1.74,0.42,2.181c0.38,0.46,0.98,0.56,1.58,0.56c1.78,0,3.14-0.8,3.14-2.8c0-1.58-0.8-3.42-3.98-3.42
		c-1.08,0-1.16,0.12-1.16,0.52V155.214z"/>
	<path d="M28.878,146.695c1.46-1.141,3.32-1.7,5.4-1.7c1.08,0,2.6,0.22,3.54,0.48c0.24,0.06,0.38,0.1,0.56,0.079
		c0.02,0.461,0.12,1.721,0.28,2.94c-0.1,0.14-0.4,0.16-0.54,0.04c-0.3-1.36-1.2-2.92-4.1-2.92c-3.06,0-5.66,1.939-5.66,6.08
		c0,4.2,2.66,6.52,5.94,6.52c2.58,0,3.72-1.68,4.18-2.859c0.14-0.101,0.44-0.061,0.52,0.08c-0.14,1.04-0.66,2.359-0.96,2.739
		c-0.24,0.04-0.48,0.12-0.7,0.2c-0.44,0.16-1.88,0.46-3.16,0.46c-1.8,0-3.52-0.359-4.98-1.34c-1.6-1.1-2.84-2.92-2.84-5.5
		C26.358,149.775,27.358,147.875,28.878,146.695z"/>
	<path d="M41.846,147.915c0-1.399-0.1-1.82-0.94-1.939l-0.44-0.061c-0.16-0.1-0.18-0.42,0.02-0.5c1.7-0.1,3.32-0.16,5.02-0.16
		c1.68,0,3.1,0.12,4.4,0.601c2.7,0.979,4.06,3.26,4.06,5.899c0,2.54-1.22,4.721-3.5,5.96c-1.3,0.7-2.94,0.96-4.48,0.96
		c-1.28,0-2.56-0.159-3.26-0.159c-0.84,0-1.56,0.02-2.5,0.06c-0.12-0.06-0.16-0.38-0.04-0.5l0.46-0.06c1.16-0.16,1.2-0.4,1.2-2.5
		V147.915z M43.486,155.054c0,1.061,0.06,1.7,0.4,2.181c0.44,0.62,1.2,0.819,2.46,0.819c3.88,0,5.62-2.539,5.62-6.26
		c0-2.2-1.06-5.92-6.3-5.92c-1.18,0-1.82,0.16-1.98,0.28c-0.16,0.12-0.2,0.62-0.2,1.52V155.054z"/>
	<path d="M56.918,148.315c0-2.08-0.04-2.38-1.22-2.521l-0.32-0.04c-0.12-0.08-0.08-0.439,0.04-0.5c0.86,0.04,1.54,0.061,2.36,0.061
		h3.76c1.28,0,2.46,0,2.7-0.061c0.12,0.34,0.24,1.78,0.32,2.66c-0.08,0.12-0.4,0.16-0.5,0.04c-0.3-0.939-0.48-1.64-1.52-1.9
		c-0.42-0.1-1.06-0.119-1.94-0.119h-1.44c-0.6,0-0.6,0.04-0.6,0.8v4c0,0.56,0.06,0.56,0.66,0.56h1.16c0.84,0,1.46-0.04,1.7-0.12
		c0.24-0.08,0.38-0.199,0.48-0.699l0.16-0.82c0.1-0.12,0.44-0.12,0.52,0.02c0,0.48-0.08,1.261-0.08,2.021
		c0,0.72,0.08,1.479,0.08,1.92c-0.08,0.14-0.42,0.14-0.52,0.02l-0.18-0.779c-0.08-0.36-0.22-0.66-0.62-0.761
		c-0.28-0.079-0.76-0.1-1.54-0.1h-1.16c-0.6,0-0.66,0.021-0.66,0.54v2.82c0,1.06,0.06,1.739,0.38,2.08
		c0.24,0.239,0.66,0.46,2.42,0.46c1.54,0,2.12-0.08,2.56-0.301c0.36-0.199,0.9-0.899,1.42-1.939c0.14-0.101,0.42-0.04,0.5,0.14
		c-0.14,0.7-0.64,2.24-0.9,2.78c-1.8-0.04-3.58-0.06-5.36-0.06h-1.8c-0.86,0-1.54,0.02-2.72,0.06c-0.12-0.06-0.16-0.38-0.04-0.5
		l0.66-0.06c1.14-0.101,1.24-0.4,1.24-2.5V148.315z"/>
	<path d="M70.31,150.955c0,0.54,0.06,0.54,0.66,0.54h1.36c0.82,0,1.46-0.04,1.7-0.12c0.22-0.08,0.38-0.18,0.5-0.7l0.18-0.8
		c0.1-0.12,0.44-0.12,0.52,0c0,0.48-0.08,1.28-0.08,2.021c0,0.72,0.08,1.479,0.08,1.939c-0.08,0.12-0.38,0.12-0.52,0l-0.2-0.78
		c-0.1-0.359-0.26-0.64-0.64-0.76c-0.28-0.08-0.78-0.1-1.54-0.1h-1.36c-0.6,0-0.66,0.02-0.66,0.54v2.78c0,2.1,0.04,2.399,1.22,2.5
		l0.68,0.06c0.12,0.08,0.08,0.44-0.04,0.5c-1.18-0.04-1.86-0.06-2.66-0.06c-0.88,0-1.56,0.02-2.5,0.06
		c-0.12-0.06-0.16-0.38-0.04-0.5l0.5-0.06c1.16-0.141,1.2-0.4,1.2-2.5v-7.2c0-2.101-0.04-2.38-1.2-2.521l-0.32-0.04
		c-0.12-0.08-0.08-0.439,0.04-0.5c0.84,0.04,1.52,0.061,2.32,0.061h3.68c1.28,0,2.44,0,2.7-0.061c0,0.92,0.02,1.88,0.06,2.641
		c-0.06,0.12-0.34,0.18-0.48,0.06c-0.16-0.9-0.4-1.64-1.4-1.9c-0.44-0.119-1.1-0.119-1.94-0.119h-1.22c-0.6,0-0.6,0.04-0.6,0.8
		V150.955z"/>
	<path d="M89.47,156.475c0,0.8,0.12,1.279,0.48,1.42c0.06,0.06,0.06,0.18-0.02,0.239c-0.24,0-0.6,0.08-0.98,0.181
		c-1.06,0.279-2.5,0.52-3.58,0.52c-2.38,0-4.56-0.66-6.1-2.22c-1.2-1.2-1.84-2.78-1.84-4.54c0-1.7,0.56-3.42,1.8-4.74
		c1.34-1.399,3.32-2.34,6.34-2.34c1.14,0,2.2,0.22,2.54,0.3c0.38,0.08,1,0.221,1.24,0.181c0,0.659,0.12,1.699,0.3,2.899
		c-0.06,0.16-0.42,0.18-0.54,0.061c-0.56-2.16-2.06-2.841-4.1-2.841c-3.88,0-5.58,2.761-5.58,5.761c0,3.84,1.98,6.859,6,6.859
		c1.24,0,1.98-0.26,2.2-0.6c0.1-0.14,0.2-0.5,0.2-1.14v-0.801c0-1.68-0.06-1.8-1.3-1.939l-0.88-0.101c-0.16-0.08-0.14-0.439,0-0.5
		c0.58,0.04,1.68,0.061,2.86,0.061c0.78,0,1.46-0.021,2.12-0.061c0.14,0.08,0.16,0.381,0.02,0.5l-0.32,0.04
		c-0.84,0.101-0.86,0.66-0.86,1.681V156.475z"/>
	<path d="M96.296,152.054c-0.96,0-1,0.04-1,0.641v2.82c0,2.1,0.1,2.38,1.22,2.5l0.58,0.06c0.12,0.08,0.08,0.44-0.04,0.5
		c-1.08-0.04-1.76-0.06-2.54-0.06c-0.86,0-1.54,0.039-2.32,0.06c-0.12-0.06-0.16-0.38-0.04-0.5l0.34-0.06
		c1.12-0.2,1.16-0.4,1.16-2.5v-7.2c0-2.101-0.14-2.44-1.18-2.521l-0.52-0.04c-0.12-0.08-0.08-0.439,0.04-0.5
		c0.98,0.021,1.66,0.061,2.52,0.061c0.78,0,1.46-0.021,2.32-0.061c0.12,0.061,0.16,0.42,0.04,0.5l-0.38,0.04
		c-1.16,0.12-1.2,0.42-1.2,2.521v2.3c0,0.62,0.04,0.64,1,0.64h5.72c0.96,0,1-0.02,1-0.64v-2.3c0-2.101-0.04-2.4-1.22-2.521
		l-0.38-0.04c-0.12-0.08-0.08-0.439,0.04-0.5c0.92,0.04,1.6,0.061,2.42,0.061c0.78,0,1.46-0.021,2.36-0.061
		c0.12,0.061,0.16,0.42,0.04,0.5l-0.42,0.04c-1.16,0.12-1.2,0.42-1.2,2.521v7.2c0,2.1,0.04,2.359,1.2,2.5l0.48,0.06
		c0.12,0.08,0.08,0.44-0.04,0.5c-0.96-0.04-1.64-0.06-2.42-0.06c-0.82,0-1.54,0.02-2.42,0.06c-0.12-0.06-0.16-0.38-0.04-0.5
		l0.38-0.06c1.22-0.2,1.22-0.4,1.22-2.5v-2.82c0-0.601-0.04-0.641-1-0.641H96.296z"/>
	<path d="M109.858,148.355c0-2.12-0.04-2.46-1.22-2.561l-0.5-0.04c-0.12-0.08-0.08-0.439,0.04-0.5c1,0.04,1.68,0.061,2.52,0.061
		c0.8,0,1.48-0.021,2.48-0.061c0.12,0.061,0.16,0.42,0.04,0.5l-0.5,0.04c-1.18,0.101-1.22,0.44-1.22,2.561v7.12
		c0,2.119,0.04,2.399,1.22,2.54l0.5,0.06c0.12,0.08,0.08,0.44-0.04,0.5c-1-0.04-1.68-0.06-2.48-0.06c-0.84,0-1.52,0.02-2.52,0.06
		c-0.12-0.06-0.16-0.38-0.04-0.5l0.5-0.06c1.18-0.141,1.22-0.421,1.22-2.54V148.355z"/>
	<path d="M116.948,148.355c0-2.221-0.2-2.46-1.38-2.561l-0.5-0.04c-0.12-0.08-0.08-0.439,0.04-0.5c1.16,0.04,1.84,0.061,2.68,0.061
		c0.8,0,1.48-0.021,2.28-0.061c0.12,0.061,0.16,0.42,0.04,0.5l-0.3,0.04c-1.18,0.16-1.22,0.44-1.22,2.561v7.42
		c0,1.58-0.08,2.96-0.46,3.88c-0.66,1.6-2.08,2.88-3.94,2.88c-0.24,0-0.86-0.021-0.86-0.42c0-0.34,0.3-0.92,0.72-0.92
		c0.24,0,0.48,0.04,0.74,0.12c0.28,0.08,0.56,0.14,0.84,0.14c0.42,0,0.66-0.24,0.8-0.52c0.46-0.94,0.52-3.94,0.52-5.021V148.355z"/>
	<path d="M123.62,148.315c0-2.101-0.04-2.42-1.2-2.521l-0.5-0.04c-0.12-0.08-0.08-0.439,0.04-0.5c0.98,0.04,1.62,0.061,2.52,0.061
		c0.78,0,1.46-0.021,2.32-0.061c0.12,0.061,0.16,0.42,0.04,0.5l-0.38,0.04c-1.16,0.12-1.2,0.42-1.2,2.521v2.3
		c0,0.38,0.04,0.76,0.26,0.76c0.18,0,0.42-0.12,0.56-0.22c0.28-0.24,0.8-0.76,1.02-0.96l2.16-2.141c0.38-0.359,1.36-1.38,1.56-1.659
		c0.1-0.141,0.14-0.24,0.14-0.32s-0.08-0.14-0.34-0.2l-0.54-0.12c-0.14-0.14-0.12-0.399,0.04-0.5c0.7,0.04,1.5,0.061,2.2,0.061
		s1.38-0.021,1.98-0.061c0.14,0.101,0.16,0.38,0.04,0.5c-0.52,0.04-1.3,0.24-1.86,0.561c-0.56,0.319-1.68,1.26-2.8,2.319l-1.8,1.7
		c-0.28,0.28-0.46,0.46-0.46,0.62c0,0.14,0.12,0.3,0.38,0.62c1.9,2.18,3.44,3.979,5,5.62c0.48,0.479,0.92,0.74,1.6,0.82l0.54,0.06
		c0.14,0.1,0.1,0.44-0.04,0.5c-0.52-0.04-1.3-0.06-2.24-0.06c-0.82,0-1.52,0.02-2.44,0.06c-0.14-0.04-0.2-0.38-0.08-0.5l0.46-0.08
		c0.28-0.04,0.48-0.1,0.48-0.2c0-0.12-0.14-0.279-0.28-0.46c-0.38-0.479-0.9-1.02-1.66-1.88l-1.6-1.8
		c-1.14-1.28-1.46-1.68-1.94-1.68c-0.3,0-0.34,0.26-0.34,0.96v2.58c0,2.1,0.04,2.38,1.16,2.5l0.54,0.06
		c0.12,0.08,0.08,0.44-0.04,0.5c-0.98-0.04-1.66-0.06-2.44-0.06c-0.82,0-1.5,0.02-2.32,0.06c-0.12-0.06-0.16-0.36-0.04-0.5l0.4-0.06
		c1.06-0.16,1.1-0.4,1.1-2.5V148.315z"/>
	<path d="M137.889,148.315c0-2.101-0.04-2.42-1.3-2.521l-0.5-0.04c-0.12-0.08-0.08-0.439,0.04-0.5c1.12,0.04,1.8,0.061,2.6,0.061
		c0.78,0,1.46-0.021,2.46-0.061c0.12,0.061,0.16,0.42,0.04,0.5l-0.48,0.04c-1.18,0.101-1.22,0.42-1.22,2.521v6.96
		c0,1.26,0.06,1.779,0.42,2.16c0.22,0.22,0.6,0.46,2.18,0.46c1.7,0,2.12-0.08,2.44-0.261c0.4-0.239,0.92-0.96,1.32-1.979
		c0.12-0.101,0.5-0.021,0.5,0.12c0,0.22-0.56,2.26-0.84,2.8c-1.02-0.04-2.92-0.06-4.98-0.06h-1.84c-0.84,0-1.48,0.02-2.6,0.06
		c-0.12-0.06-0.16-0.38-0.04-0.5l0.6-0.06c1.16-0.12,1.2-0.4,1.2-2.5V148.315z"/>
	<path d="M154.523,153.174c0.46,0.94,0.9,1.86,1.38,2.74h0.04c0.54-0.939,1.04-1.979,1.54-3l1.88-3.82
		c0.9-1.819,1.48-2.92,1.52-3.84c0.68,0.061,1.1,0.061,1.5,0.061c0.5,0,1.16-0.021,1.78-0.061c0.12,0.08,0.12,0.42,0.02,0.5
		l-0.42,0.04c-1.26,0.12-1.42,0.5-1.4,1.9c0.04,2.12,0.06,5.82,0.22,8.7c0.06,1,0.04,1.54,0.98,1.62l0.64,0.06
		c0.12,0.12,0.1,0.42-0.04,0.5c-0.82-0.04-1.64-0.06-2.36-0.06c-0.7,0-1.6,0.02-2.42,0.06c-0.14-0.1-0.16-0.38-0.04-0.5l0.58-0.06
		c0.98-0.101,0.98-0.421,0.98-1.7l-0.06-8.34h-0.04c-0.14,0.22-0.9,1.819-1.3,2.6l-1.78,3.5c-0.9,1.76-1.8,3.64-2.16,4.56
		c-0.04,0.061-0.12,0.08-0.2,0.08c-0.04,0-0.14-0.02-0.18-0.08c-0.34-1.06-1.3-3.02-1.76-4l-1.8-3.859
		c-0.42-0.92-0.84-1.96-1.28-2.88h-0.04c-0.08,1.239-0.14,2.399-0.2,3.56c-0.06,1.22-0.14,3-0.14,4.7c0,1.479,0.12,1.8,0.9,1.86
		l0.76,0.06c0.14,0.12,0.12,0.44-0.02,0.5c-0.68-0.04-1.46-0.06-2.22-0.06c-0.64,0-1.36,0.02-2.04,0.06c-0.12-0.1-0.16-0.4-0.04-0.5
		l0.44-0.06c0.84-0.12,1.12-0.24,1.24-1.641c0.12-1.32,0.22-2.42,0.34-4.399c0.1-1.66,0.18-3.36,0.22-4.46
		c0.04-1.261-0.12-1.561-1.34-1.721l-0.32-0.04c-0.1-0.12-0.08-0.42,0.08-0.5c0.6,0.04,1.08,0.061,1.58,0.061c0.46,0,1,0,1.66-0.061
		c-0.08,0.78,0.42,2.021,1.04,3.3L154.523,153.174z"/>
	<path d="M178.606,155.115c0,0.6,0,2.979,0.061,3.5c-0.04,0.12-0.16,0.22-0.381,0.22c-0.239-0.34-0.819-1.04-2.56-3.02l-4.64-5.28
		c-0.54-0.62-1.9-2.26-2.32-2.7h-0.04c-0.08,0.24-0.1,0.7-0.1,1.3v4.36c0,0.94,0.02,3.54,0.36,4.14
		c0.12,0.221,0.52,0.341,1.02,0.381l0.62,0.06c0.12,0.16,0.1,0.4-0.04,0.5c-0.9-0.04-1.6-0.06-2.34-0.06
		c-0.84,0-1.38,0.02-2.08,0.06c-0.14-0.1-0.16-0.38-0.04-0.5l0.54-0.06c0.46-0.061,0.78-0.181,0.88-0.4
		c0.28-0.72,0.26-3.16,0.26-4.12v-5.78c0-0.56-0.02-0.979-0.44-1.439c-0.28-0.28-0.76-0.42-1.24-0.48l-0.34-0.04
		c-0.12-0.12-0.12-0.42,0.04-0.5c0.84,0.061,1.9,0.061,2.26,0.061c0.32,0,0.66-0.021,0.92-0.061c0.4,1.021,2.76,3.66,3.42,4.4
		l1.94,2.18c1.38,1.54,2.36,2.66,3.3,3.62h0.04c0.079-0.1,0.079-0.42,0.079-0.84v-4.28c0-0.939-0.02-3.54-0.399-4.14
		c-0.12-0.18-0.44-0.3-1.24-0.4l-0.34-0.04c-0.14-0.12-0.12-0.439,0.04-0.5c0.92,0.04,1.6,0.061,2.36,0.061
		c0.859,0,1.38-0.021,2.06-0.061c0.16,0.101,0.16,0.38,0.04,0.5l-0.28,0.04c-0.64,0.101-1.04,0.26-1.12,0.42
		c-0.34,0.721-0.3,3.2-0.3,4.12V155.115z"/>
	<path d="M181.425,152.054c0-4,3-7.06,7.119-7.06c4.62,0,6.94,3.34,6.94,6.86c0,4.04-3.08,6.979-6.94,6.979
		C184.104,158.834,181.425,155.655,181.425,152.054z M193.484,152.475c0-3.301-1.46-6.86-5.28-6.86c-2.08,0-4.779,1.42-4.779,5.8
		c0,2.96,1.439,6.8,5.38,6.8C191.204,158.214,193.484,156.415,193.484,152.475z"/>
	<path d="M200.114,155.515c0,2.1,0.04,2.359,1.32,2.5l0.54,0.06c0.12,0.1,0.08,0.44-0.04,0.5c-1.14-0.04-1.8-0.06-2.6-0.06
		c-0.841,0-1.561,0.02-2.44,0.06c-0.12-0.06-0.16-0.38-0.04-0.5l0.42-0.06c1.16-0.16,1.2-0.4,1.2-2.5v-7.381
		c0-1.699-0.04-2.04-0.94-2.14l-0.72-0.08c-0.14-0.12-0.12-0.42,0.04-0.5c1.06-0.14,2.3-0.16,3.96-0.16s2.9,0.221,3.84,0.8
		c0.92,0.58,1.601,1.62,1.601,3c0,1.841-1.141,2.761-2,3.181c-0.88,0.42-1.94,0.6-2.761,0.6c-0.14-0.06-0.14-0.359-0.02-0.399
		c2.16-0.4,2.939-1.62,2.939-3.36c0-1.94-1.14-3.2-3.22-3.2c-1.06,0-1.08,0.08-1.08,0.72V155.515z"/>
	<path d="M221.822,151.855c0,3.3-2.04,5.84-4.84,6.68c-0.04,0.1,0.04,0.18,0.16,0.3c1.02,0.98,2.859,2.62,4.46,3.141
		c0.739,0.239,1.399,0.279,1.859,0.279c0.2,0,0.681-0.06,0.96-0.18c0.12,0.02,0.16,0.2,0.101,0.3c-0.641,0.36-1.54,0.521-2.24,0.521
		c-0.92,0-2.06-0.2-3.24-0.74c-1.64-0.76-2.96-1.92-3.7-2.641c-0.6-0.6-0.779-0.64-1.34-0.739c-0.52-0.08-1.239-0.2-1.96-0.48
		c-2.66-1-4.279-3.38-4.279-6.24c0-4,3-7.06,7.119-7.06C219.502,144.995,221.822,148.334,221.822,151.855z M219.822,152.475
		c0-3.301-1.46-6.86-5.28-6.86c-2.08,0-4.779,1.42-4.779,5.8c0,2.96,1.439,6.8,5.38,6.8
		C217.542,158.214,219.822,156.415,219.822,152.475z"/>
	<path d="M224.794,148.334c0-1.899-0.06-2.24-0.88-2.34l-0.64-0.08c-0.14-0.1-0.14-0.42,0.02-0.5c1.12-0.1,2.5-0.16,4.46-0.16
		c1.24,0,2.421,0.101,3.341,0.601c0.96,0.5,1.659,1.399,1.659,2.8c0,1.899-1.5,2.939-2.5,3.34c-0.1,0.12,0,0.32,0.101,0.48
		c1.6,2.579,2.66,4.18,4.02,5.319c0.341,0.3,0.841,0.521,1.38,0.561c0.101,0.04,0.12,0.199,0.021,0.279
		c-0.18,0.061-0.5,0.101-0.88,0.101c-1.7,0-2.72-0.5-4.141-2.521c-0.52-0.739-1.34-2.12-1.96-3.02c-0.3-0.44-0.619-0.641-1.42-0.641
		c-0.899,0-0.939,0.021-0.939,0.44v2.521c0,2.1,0.04,2.34,1.2,2.5l0.42,0.06c0.12,0.1,0.08,0.44-0.04,0.5
		c-0.9-0.04-1.58-0.06-2.38-0.06c-0.841,0-1.561,0.02-2.5,0.06c-0.12-0.06-0.16-0.36-0.04-0.5l0.5-0.06
		c1.159-0.141,1.199-0.4,1.199-2.5V148.334z M226.435,151.195c0,0.359,0,0.58,0.06,0.66c0.061,0.06,0.36,0.1,1.38,0.1
		c0.721,0,1.48-0.08,2.061-0.52c0.54-0.42,1-1.12,1-2.48c0-1.58-0.98-3.08-3.2-3.08c-1.24,0-1.3,0.08-1.3,0.641V151.195z"/>
	<path d="M240.15,158.834c-1.68,0-2.74-0.52-3.12-0.74c-0.24-0.439-0.5-1.859-0.54-2.8c0.101-0.14,0.4-0.18,0.48-0.06
		c0.3,1.02,1.12,2.979,3.439,2.979c1.681,0,2.5-1.1,2.5-2.3c0-0.88-0.18-1.86-1.64-2.8l-1.9-1.24c-1-0.66-2.16-1.8-2.16-3.439
		c0-1.9,1.48-3.44,4.08-3.44c0.62,0,1.341,0.12,1.86,0.26c0.26,0.08,0.54,0.12,0.7,0.12c0.18,0.48,0.359,1.601,0.359,2.44
		c-0.079,0.12-0.399,0.18-0.5,0.06c-0.26-0.96-0.8-2.26-2.72-2.26c-1.96,0-2.38,1.3-2.38,2.22c0,1.16,0.96,2,1.7,2.46l1.6,1
		c1.26,0.78,2.5,1.94,2.5,3.84C244.41,157.334,242.75,158.834,240.15,158.834z"/>
	<path d="M252.992,155.515c0,2.1,0.04,2.399,1.2,2.5l0.64,0.06c0.12,0.08,0.08,0.44-0.04,0.5c-1.14-0.04-1.819-0.06-2.62-0.06
		c-0.8,0-1.5,0.02-2.779,0.06c-0.12-0.06-0.16-0.4,0-0.5l0.72-0.06c1.14-0.101,1.24-0.4,1.24-2.5v-8.94c0-0.62,0-0.64-0.601-0.64
		h-1.1c-0.86,0-1.96,0.04-2.46,0.5c-0.48,0.439-0.68,0.88-0.9,1.38c-0.16,0.12-0.439,0.02-0.52-0.141
		c0.32-0.899,0.62-2.18,0.76-2.979c0.061-0.04,0.32-0.061,0.38,0c0.12,0.64,0.78,0.62,1.7,0.62h8.1c1.08,0,1.261-0.04,1.561-0.561
		c0.1-0.04,0.32-0.02,0.359,0.061c-0.22,0.819-0.359,2.439-0.3,3.04c-0.08,0.16-0.42,0.16-0.52,0.04c-0.061-0.5-0.2-1.24-0.5-1.46
		c-0.46-0.341-1.22-0.5-2.32-0.5h-1.42c-0.6,0-0.58,0.02-0.58,0.68V155.515z"/>
	<path d="M271.357,150.334c0-1.24-0.04-3.54-0.38-4.14c-0.141-0.24-0.5-0.38-1-0.42l-0.5-0.04c-0.12-0.141-0.08-0.4,0.04-0.48
		c0.76,0.04,1.5,0.061,2.279,0.061c0.841,0,1.381-0.021,2.101-0.061c0.16,0.101,0.14,0.36,0.04,0.48l-0.48,0.04
		c-0.5,0.04-0.88,0.22-1,0.479c-0.279,0.66-0.279,2.96-0.279,4.08v2.26c0,1.74-0.28,3.58-1.4,4.78c-0.86,0.94-2.34,1.46-3.82,1.46
		c-1.38,0-2.76-0.26-3.739-1.1c-1.061-0.88-1.561-2.34-1.561-4.72v-4.721c0-2.08-0.04-2.42-1.2-2.52l-0.5-0.04
		c-0.12-0.08-0.08-0.42,0.04-0.48c1,0.04,1.681,0.061,2.48,0.061c0.819,0,1.479-0.021,2.46-0.061c0.12,0.061,0.16,0.4,0.04,0.48
		l-0.48,0.04c-1.16,0.1-1.2,0.439-1.2,2.52v4.32c0,3.22,1,5.34,4.061,5.34c2.899,0,4-2.28,4-5.32V150.334z"/>
	<path d="M277.009,147.435c-0.46-1.12-0.76-1.54-1.619-1.641l-0.36-0.04c-0.14-0.12-0.12-0.399,0.04-0.5
		c0.58,0.04,1.22,0.061,2.08,0.061c0.88,0,1.58-0.021,2.42-0.061c0.14,0.08,0.18,0.38,0.04,0.5l-0.3,0.04
		c-0.761,0.101-0.92,0.221-0.94,0.38c0.04,0.2,0.38,1.28,1,2.801c0.92,2.319,1.84,4.619,2.84,6.899c0.62-1.32,1.46-3.38,1.92-4.439
		c0.58-1.36,1.521-3.62,1.86-4.48c0.16-0.42,0.18-0.64,0.18-0.78c0-0.14-0.199-0.3-0.899-0.38l-0.36-0.04
		c-0.14-0.12-0.1-0.42,0.04-0.5c0.56,0.04,1.32,0.061,2.08,0.061c0.66,0,1.28-0.021,1.94-0.061c0.14,0.08,0.14,0.4,0.039,0.5
		l-0.6,0.04c-0.479,0.04-0.78,0.28-1.04,0.7c-0.56,0.94-1.34,2.56-2.24,4.6l-1.08,2.46c-0.8,1.841-1.739,4.16-2.079,5.221
		c-0.061,0.04-0.141,0.06-0.221,0.06c-0.1,0-0.2-0.02-0.3-0.06c-0.22-0.84-0.58-1.82-0.92-2.66L277.009,147.435z"/>
	<path d="M289.695,145.735c-0.12-0.12-0.1-0.4,0.061-0.48c0.539,0.04,1.439,0.061,2.06,0.061c0.56,0,1.58-0.021,2.28-0.061
		c0.18,0.061,0.159,0.34,0.04,0.48l-0.46,0.04c-0.421,0.04-0.66,0.16-0.66,0.34c0,0.24,0.42,1.26,1.04,2.68
		c1.12,2.5,2.3,5,3.46,7.46c0.479-1,1.02-2.12,1.54-3.239c0.18-0.381,0.319-0.721,0.319-0.82c0-0.101-0.06-0.28-0.159-0.521
		c-0.7-1.6-1.44-3.199-2.2-4.8c-0.3-0.62-0.601-1.04-1.28-1.1l-0.48-0.04c-0.14-0.16-0.119-0.4,0.04-0.48
		c0.58,0.04,1.341,0.061,2.141,0.061c1,0,1.74-0.021,2.2-0.061c0.14,0.061,0.159,0.32,0.04,0.48l-0.521,0.04
		c-0.78,0.06-0.8,0.2-0.42,1.1c0.42,0.98,0.98,2.24,1.54,3.48c0.38-0.78,0.74-1.54,1.18-2.62c0.721-1.7,0.62-1.92-0.02-1.96
		l-0.601-0.04c-0.14-0.2-0.1-0.42,0.04-0.48c0.54,0.04,1.141,0.061,1.88,0.061c0.66,0,1.461-0.021,1.921-0.061
		c0.14,0.061,0.159,0.32,0.04,0.48l-0.58,0.04c-0.841,0.06-1.2,0.96-1.641,1.779c-0.42,0.74-1.26,2.48-1.56,3.181
		c-0.101,0.2-0.181,0.399-0.181,0.479s0.04,0.24,0.141,0.48c0.68,1.54,1.38,3.04,2.04,4.56c0.62-1.399,1.22-2.8,1.8-4.22
		c0.4-0.96,1.46-3.62,1.6-3.98c0.261-0.72,0.601-1.579,0.601-1.819c0-0.28-0.24-0.44-0.66-0.46l-0.58-0.04
		c-0.16-0.181-0.14-0.4,0.021-0.48c0.76,0.04,1.3,0.061,1.92,0.061c0.76,0,1.34-0.021,1.859-0.061c0.16,0.061,0.181,0.32,0.04,0.48
		l-0.38,0.04c-1,0.1-1.18,0.7-2.38,3.479l-1.46,3.38c-0.88,2.04-1.68,4-2.5,6.141c-0.061,0.04-0.14,0.06-0.24,0.06
		c-0.1,0-0.2-0.02-0.28-0.06c-0.64-1.78-1.8-4.28-2.42-5.681c-0.72,1.46-1.92,4.021-2.5,5.681c-0.06,0.04-0.14,0.06-0.239,0.06
		c-0.101,0-0.2-0.02-0.301-0.06c-0.34-0.84-1.119-2.641-1.38-3.221c-1.279-2.779-2.52-5.56-3.819-8.34
		c-0.381-0.819-0.62-1.359-1.46-1.439L289.695,145.735z"/>
	<path d="M323.521,158.075c0.141,0.12,0.12,0.4-0.02,0.5c-0.92-0.04-1.7-0.06-2.521-0.06c-0.899,0-1.859,0.02-2.58,0.06
		c-0.12-0.12-0.14-0.38-0.04-0.5l0.58-0.06c0.46-0.04,0.681-0.12,0.681-0.261c0-0.12-0.04-0.319-0.44-0.88
		c-0.86-1.22-1.98-2.88-2.86-4.02c-0.54,0.68-2.02,2.859-2.819,4.26c-0.16,0.28-0.261,0.5-0.261,0.64c0,0.12,0.181,0.221,0.58,0.261
		l0.54,0.06c0.141,0.12,0.101,0.4-0.02,0.5c-0.72-0.04-1.48-0.06-2.16-0.06s-1.42,0.02-2.06,0.06c-0.181-0.08-0.2-0.38-0.061-0.5
		l0.5-0.06c1.08-0.12,1.78-0.98,2.38-1.78c0.24-0.32,1.62-2.08,2.721-3.681c0.14-0.199,0.18-0.34,0.18-0.399
		c0-0.061-0.08-0.24-0.24-0.46l-3-4.3c-0.66-0.94-1.04-1.341-1.74-1.5l-0.64-0.141c-0.1-0.12-0.08-0.439,0.04-0.5
		c0.939,0.04,1.6,0.061,2.32,0.061c0.779,0,1.68-0.021,2.26-0.061c0.14,0.061,0.16,0.36,0.04,0.5l-0.561,0.04
		c-0.359,0.021-0.6,0.141-0.6,0.26c0,0.181,0.2,0.521,0.6,1.101c0.66,0.96,1.841,2.76,2.561,3.66c0.52-0.641,2.319-3.48,2.68-4.08
		c0.16-0.26,0.28-0.521,0.28-0.66c0-0.1-0.3-0.22-0.66-0.26l-0.52-0.061c-0.12-0.14-0.12-0.42,0.039-0.5
		c0.7,0.04,1.341,0.061,2.12,0.061c0.74,0,1.301-0.021,1.92-0.061c0.141,0.101,0.16,0.38,0.04,0.5l-0.479,0.04
		c-0.601,0.061-1.32,0.66-2.14,1.7c-0.78,1-1.641,2.2-2.601,3.54c-0.12,0.18-0.2,0.32-0.2,0.38c0,0.061,0.021,0.2,0.261,0.521
		l3.38,4.76c0.68,0.939,1.199,1.26,1.819,1.32L323.521,158.075z"/>
	<path d="M330.621,155.475c0,2.14,0.12,2.46,1.2,2.54l0.76,0.06c0.12,0.12,0.08,0.44-0.04,0.5c-1.24-0.04-1.92-0.06-2.72-0.06
		c-0.841,0-1.561,0.02-2.62,0.06c-0.12-0.06-0.16-0.38-0.04-0.5l0.62-0.06c1.159-0.12,1.199-0.4,1.199-2.54v-1.021
		c0-1.1-0.06-1.36-0.64-2.479l-2.36-4.601c-0.68-1.32-0.979-1.42-1.58-1.52l-0.56-0.101c-0.12-0.14-0.1-0.42,0.04-0.5
		c0.64,0.04,1.36,0.061,2.32,0.061c0.92,0,1.64-0.021,2.14-0.061c0.18,0.061,0.18,0.38,0.06,0.5l-0.26,0.04
		c-0.7,0.101-0.84,0.2-0.84,0.36c0,0.2,0.521,1.34,0.62,1.54c0.74,1.479,1.479,3.06,2.26,4.439c0.62-1.06,1.28-2.22,1.88-3.38
		c0.561-1.04,1.301-2.399,1.301-2.64c0-0.12-0.36-0.26-0.841-0.32l-0.359-0.04c-0.141-0.14-0.12-0.42,0.04-0.5
		c0.72,0.04,1.3,0.061,1.92,0.061s1.18-0.021,1.859-0.061c0.16,0.101,0.181,0.38,0.04,0.5l-0.56,0.101
		c-1.04,0.18-1.64,1.439-2.64,3.16l-1.261,2.18c-0.88,1.52-0.939,1.7-0.939,3.24V155.475z"/>
	<path d="M342.805,149.475c1.04-1.48,1.62-2.24,1.94-2.841c0.14-0.239,0.24-0.399,0.24-0.54c0-0.1-0.2-0.159-0.721-0.159h-2.979
		c-1.6,0-2.5,0.14-2.98,0.659c-0.42,0.46-0.72,1.021-0.88,1.36c-0.18,0.08-0.42,0.021-0.5-0.14c0.24-0.7,0.58-1.9,0.82-3
		c0.08-0.061,0.24-0.061,0.34,0c0.061,0.479,0.36,0.5,1.98,0.5h5.279c1.44,0,2.08-0.021,2.301-0.061
		c0.08,0.021,0.119,0.101,0.119,0.181c-0.539,0.46-2.239,2.779-3.279,4.279l-3.3,4.761c-0.221,0.319-1.98,2.8-1.98,3.1
		c0,0.2,0.2,0.24,0.56,0.28c0.521,0.04,1.561,0.04,2.961,0.04c1.279,0,2.939-0.04,3.699-0.46c0.58-0.32,1.061-1.061,1.4-1.841
		c0.18-0.06,0.439-0.04,0.5,0.141c-0.18,0.92-0.58,2.34-0.9,2.84c-1.1-0.04-2.239-0.06-3.64-0.06h-5.14
		c-1.061,0-1.78,0.039-2.24,0.06c-0.08-0.04-0.101-0.14-0.101-0.24c0.421-0.399,1.561-1.819,2.181-2.72L342.805,149.475z"/>
	<path d="M5.253,178.375c0.3-0.1,0.34-0.28,0.34-0.58l0.02-0.92c0.02-0.74-0.22-1.74-1.46-1.74c-0.56,0-1.24,0.28-1.28,0.9
		c-0.02,0.32-0.04,0.56-0.2,0.68c-0.3,0.24-0.84,0.38-1.14,0.38c-0.18,0-0.28-0.1-0.28-0.279c0-1.04,2.26-2.46,3.72-2.46
		c1.44,0,2.14,0.84,2.08,2.34l-0.12,3.479c-0.04,0.92,0.14,1.74,0.92,1.74c0.2,0,0.38-0.06,0.5-0.12c0.1-0.06,0.2-0.14,0.26-0.14
		c0.08,0,0.14,0.12,0.14,0.26c0,0.101-0.7,0.88-1.68,0.88c-0.48,0-0.96-0.18-1.3-0.62c-0.08-0.12-0.2-0.279-0.32-0.279
		c-0.14,0-0.38,0.18-0.78,0.399c-0.44,0.24-0.88,0.5-1.44,0.5c-0.58,0-1.06-0.16-1.4-0.46c-0.38-0.34-0.62-0.84-0.62-1.399
		c0-0.78,0.38-1.24,1.66-1.7L5.253,178.375z M4.013,181.895c0.4,0,1.02-0.301,1.22-0.5c0.24-0.24,0.24-0.521,0.26-0.94l0.04-1.18
		c0-0.221-0.08-0.26-0.2-0.26s-0.46,0.079-0.82,0.199c-1.18,0.4-1.76,0.7-1.76,1.48C2.753,181.035,2.993,181.895,4.013,181.895z"/>
	<path d="M10.084,171.235c0-1.181-0.02-1.3-0.62-1.66l-0.2-0.12c-0.1-0.06-0.1-0.34,0-0.4c0.46-0.18,1.42-0.439,2.18-0.84
		c0.08,0,0.16,0.04,0.2,0.12c-0.04,0.7-0.08,1.601-0.08,2.48v3.779c0,0.341,0.08,0.421,0.2,0.421c0.52-0.301,1.32-0.66,2.3-0.66
		c2.28,0,3.82,1.72,3.82,3.92c0,2.66-1.92,4.52-4.6,4.52c-0.74,0-1.3-0.14-1.7-0.26c-0.42-0.14-0.68-0.26-0.84-0.26
		s-0.32,0.16-0.42,0.3c-0.02,0.02-0.04,0.02-0.08,0.02c-0.08,0-0.16-0.04-0.2-0.119c0.02-0.28,0.04-0.66,0.04-1.7V171.235z
		 M11.565,179.794c0,0.7,0.16,1.32,0.5,1.74c0.34,0.42,0.88,0.66,1.52,0.66c1.88,0,2.62-1.601,2.62-3.32c0-2.06-1.06-3.66-3.04-3.66
		c-0.6,0-1.08,0.141-1.36,0.32c-0.2,0.14-0.24,0.36-0.24,1.14V179.794z"/>
	<path d="M25.865,174.695c0.16,0.14,0.3,0.46,0.3,0.8c0,0.36-0.2,0.74-0.44,0.74c-0.1,0-0.2-0.04-0.28-0.141
		c-0.44-0.54-1.18-1.06-2-1.06c-1.4,0-2.76,1.1-2.76,3.22c0,1.561,1.08,3.42,3.22,3.42c1.16,0,1.76-0.52,2.22-1.199
		c0.16-0.04,0.34,0.1,0.36,0.279c-0.68,1.48-2.18,2.04-3.34,2.04c-1.06,0-2.04-0.34-2.74-1.02c-0.7-0.681-1.16-1.66-1.16-2.96
		c0-2.16,1.52-4.46,4.84-4.46C24.544,174.355,25.325,174.455,25.865,174.695z"/>
	<path d="M35.168,179.594c0,1.58,0.02,2.32,0.58,2.32c0.22,0,0.56-0.1,0.86-0.2c0.14,0.04,0.16,0.54-0.02,0.641
		c-0.84,0.12-2.08,0.42-2.64,0.64c-0.12,0-0.22-0.06-0.22-0.16v-0.34c0-0.3,0-0.54-0.04-0.62h-0.08c-0.88,0.601-1.56,0.92-2.52,0.92
		c-2.22,0-3.7-1.74-3.7-3.84c0-2.8,2.12-4.6,4.84-4.6c0.68,0,1.12,0.1,1.34,0.18c0.1,0,0.12-0.12,0.12-0.28v-3.02
		c0-1.181-0.02-1.3-0.62-1.66l-0.2-0.12c-0.1-0.06-0.1-0.34,0-0.4c0.5-0.159,1.44-0.46,2.16-0.84c0.08,0,0.16,0.04,0.2,0.12
		c-0.02,0.601-0.06,1.601-0.06,2.48V179.594z M33.688,176.594c0-0.399-0.08-0.579-0.22-0.779c-0.3-0.42-0.9-0.84-1.68-0.84
		c-1.82,0-2.76,1.579-2.76,3.319c0,1.82,1.02,3.54,2.98,3.54c0.54,0,1.22-0.24,1.54-0.56c0.12-0.12,0.14-0.42,0.14-0.74V176.594z"/>
	<path d="M39.278,177.395c-0.52,0-0.54,0.04-0.54,0.54c0,2.02,1.18,3.739,3.32,3.739c0.66,0,1.22-0.199,1.84-0.979
		c0.2-0.061,0.34,0.06,0.36,0.24c-0.66,1.359-2.1,1.859-3.14,1.859c-1.3,0-2.32-0.56-2.9-1.319c-0.6-0.78-0.84-1.721-0.84-2.601
		c0-2.46,1.62-4.52,4.02-4.52c1.72,0,2.84,1.18,2.84,2.38c0,0.28-0.04,0.439-0.08,0.52c-0.06,0.12-0.34,0.141-1.18,0.141H39.278z
		 M40.518,176.794c1.48,0,1.92-0.08,2.08-0.2c0.06-0.04,0.12-0.119,0.12-0.38c0-0.56-0.38-1.26-1.54-1.26
		c-1.18,0-2.2,1.08-2.22,1.74c0,0.04,0,0.1,0.14,0.1H40.518z"/>
	<path d="M48.312,175.475c-0.34,0-0.34,0.04-0.34,0.579v4.221c0,1.439,0.04,1.68,0.76,1.74l0.72,0.06c0.14,0.1,0.1,0.44-0.04,0.5
		c-0.9-0.04-1.48-0.06-2.18-0.06c-0.72,0-1.32,0.02-1.92,0.06c-0.14-0.06-0.18-0.4-0.04-0.5l0.46-0.06
		c0.74-0.101,0.76-0.301,0.76-1.74v-4.221c0-0.539,0-0.579-0.4-0.579h-0.7c-0.12-0.08-0.14-0.261-0.06-0.381l0.86-0.42
		c0.16-0.08,0.3-0.199,0.3-0.399c0-1.16,0.14-2.4,0.62-3.521c0.5-1.14,1.62-2.54,3.6-2.54c1.06,0,1.96,0.48,1.96,1.2
		c0,0.4-0.38,0.72-0.76,0.72c-0.22,0-0.34-0.08-0.48-0.239c-0.38-0.44-0.94-0.88-1.6-0.88c-0.62,0-1.12,0.38-1.42,1.1
		c-0.36,0.92-0.44,2.38-0.44,3.38v0.58c0,0.54,0,0.56,0.34,0.56h2.28c0.22,0.2,0.08,0.761-0.14,0.841H48.312z"/>
	<path d="M59.354,175.075c0.22,0.1,0.18,0.78-0.12,0.82h-1.44c0.04,0.34,0.04,0.68,0.04,1.02c0,1.38-0.82,3.18-3.36,3.18
		c-0.36,0-0.64-0.04-0.88-0.06c-0.24,0.14-0.88,0.52-0.88,1.1c0,0.46,0.46,0.841,1.4,0.841c0.68,0,1.5-0.061,2.38-0.061
		c1.12,0,2.8,0.2,2.8,2.2c0,2.18-2.38,3.78-4.98,3.78c-2.46,0-3.32-1.32-3.32-2.32c0-0.32,0.08-0.58,0.22-0.74
		c0.34-0.359,0.9-0.88,1.36-1.34c0.18-0.18,0.34-0.36,0.16-0.48c-0.78-0.199-1.46-0.88-1.46-1.579c0-0.101,0.08-0.181,0.3-0.341
		c0.34-0.22,0.72-0.56,1.06-0.92c0.1-0.12,0.2-0.279,0.2-0.38c-0.68-0.359-1.5-1.14-1.5-2.42c0-1.72,1.48-3.02,3.26-3.02
		c0.76,0,1.46,0.199,1.92,0.399c0.64,0.28,0.78,0.32,1.22,0.32H59.354z M55.174,183.155c-0.64,0-1.44,0.04-1.72,0.22
		c-0.48,0.3-0.96,0.92-0.96,1.68c0,1.08,0.86,1.98,2.68,1.98c1.78,0,2.96-1,2.96-2.14c0-1.221-0.84-1.74-2.28-1.74H55.174z
		 M56.414,177.435c0-1.36-0.56-2.5-1.78-2.5c-0.96,0-1.68,0.88-1.68,2.239c0,1.42,0.86,2.341,1.82,2.341
		C55.854,179.515,56.414,178.655,56.414,177.435z"/>
	<path d="M61.36,171.235c0-1.181-0.02-1.3-0.62-1.66l-0.2-0.12c-0.1-0.06-0.1-0.34,0-0.4c0.5-0.159,1.44-0.46,2.16-0.84
		c0.08,0,0.16,0.04,0.2,0.12c-0.02,0.601-0.06,1.601-0.06,2.48v4.2c0,0.18,0.02,0.34,0.08,0.38c0.72-0.561,1.68-1.04,2.7-1.04
		c1.9,0,2.58,1.18,2.58,2.58v3.34c0,1.439,0.04,1.66,0.76,1.74l0.54,0.06c0.14,0.1,0.1,0.44-0.04,0.5c-0.72-0.04-1.3-0.06-2-0.06
		c-0.72,0-1.32,0.02-1.86,0.06c-0.14-0.06-0.18-0.4-0.04-0.5l0.4-0.06c0.74-0.12,0.76-0.301,0.76-1.74v-2.86
		c0-1.28-0.62-2.14-1.9-2.14c-0.68,0-1.2,0.24-1.56,0.54s-0.42,0.399-0.42,1.1v3.36c0,1.439,0.04,1.64,0.76,1.74l0.42,0.06
		c0.14,0.08,0.1,0.44-0.04,0.5c-0.6-0.04-1.18-0.06-1.88-0.06c-0.72,0-1.32,0.02-1.96,0.06c-0.14-0.06-0.18-0.4-0.04-0.5l0.5-0.06
		c0.74-0.08,0.76-0.301,0.76-1.74V171.235z"/>
	<path d="M72.016,176.775c0-0.78,0-0.88-0.54-1.24l-0.18-0.12c-0.08-0.08-0.08-0.3,0.02-0.36c0.46-0.159,1.6-0.68,2.06-0.979
		c0.1,0,0.18,0.04,0.2,0.12c-0.04,0.7-0.08,1.66-0.08,2.479v3.601c0,1.439,0.04,1.64,0.76,1.74l0.42,0.06
		c0.14,0.1,0.1,0.44-0.04,0.5c-0.6-0.04-1.18-0.06-1.88-0.06c-0.72,0-1.32,0.02-1.88,0.06c-0.14-0.06-0.18-0.4-0.04-0.5l0.42-0.06
		c0.74-0.101,0.76-0.301,0.76-1.74V176.775z M73.676,171.075c0,0.72-0.5,1.04-1.06,1.04c-0.62,0-1.02-0.46-1.02-1
		c0-0.66,0.48-1.08,1.08-1.08S73.676,170.515,73.676,171.075z"/>
	<path d="M76.631,176.775c0-0.78,0-0.88-0.54-1.24l-0.18-0.12c-0.08-0.08-0.08-0.3,0.02-0.36c0.46-0.159,1.6-0.68,2.06-0.979
		c0.1,0,0.18,0.04,0.2,0.12c-0.04,0.7-0.08,1.66-0.08,2.479v4.841c0,1.439-0.14,2.439-0.42,3.119c-0.6,1.44-1.66,2.4-3.04,3.261
		c-0.24-0.04-0.36-0.261-0.28-0.46c0.52-0.261,0.9-0.58,1.18-0.9c0.72-0.84,1.08-2.28,1.08-4.72V176.775z M78.292,171.075
		c0,0.7-0.5,1.04-1.06,1.04c-0.62,0-1.02-0.46-1.02-1.021c0-0.659,0.48-1.06,1.08-1.06S78.292,170.515,78.292,171.075z"/>
	<path d="M81.08,171.235c0-1.181-0.02-1.3-0.62-1.66l-0.2-0.12c-0.1-0.06-0.1-0.34,0-0.4c0.5-0.159,1.44-0.46,2.16-0.84
		c0.08,0,0.16,0.04,0.2,0.12c-0.02,0.601-0.06,1.601-0.06,2.48v6.859c0,0.261,0.02,0.301,0.36,0.301c0.44,0,0.82-0.221,1.36-0.78
		l0.82-0.88c0.56-0.601,0.7-0.82,0.7-0.92c0-0.101-0.1-0.16-0.44-0.2l-0.48-0.061c-0.18-0.06-0.18-0.439,0-0.5h0.46
		c0.88,0,2.06-0.04,3.18-0.159c0.14,0.06,0.16,0.399,0.04,0.5l-0.64,0.119c-0.4,0.08-0.74,0.28-1.26,0.7
		c-0.78,0.62-1.46,1.34-1.82,1.681c-0.24,0.22-0.26,0.319-0.14,0.479c0.34,0.46,0.66,0.84,1.34,1.6c0.78,0.881,1.48,1.66,1.88,2.04
		c0.28,0.261,0.68,0.381,1.04,0.44l0.28,0.04c0.14,0.1,0.12,0.44-0.04,0.5c-0.58-0.04-1.26-0.06-1.9-0.06c-0.8,0-1.5,0.02-2.08,0.06
		c-0.16-0.08-0.18-0.42-0.04-0.5l0.36-0.06c0.3-0.04,0.5-0.08,0.5-0.2s-0.08-0.261-0.34-0.561l-2.14-2.479
		c-0.18-0.2-0.4-0.28-0.62-0.28c-0.36,0-0.38,0.06-0.38,0.68v1.101c0,1.439,0.04,1.64,0.76,1.74l0.48,0.06
		c0.14,0.1,0.1,0.44-0.04,0.5c-0.66-0.04-1.24-0.06-1.94-0.06c-0.72,0-1.32,0.02-1.92,0.06c-0.14-0.06-0.18-0.4-0.02-0.5l0.44-0.06
		c0.74-0.101,0.76-0.301,0.76-1.74V171.235z"/>
	<path d="M92.821,180.275c0,1.439,0.04,1.64,0.76,1.74l0.48,0.06c0.14,0.1,0.1,0.44-0.04,0.5c-0.66-0.04-1.24-0.06-1.94-0.06
		c-0.72,0-1.32,0.02-1.92,0.06c-0.14-0.06-0.18-0.4-0.04-0.5l0.46-0.06c0.74-0.101,0.76-0.301,0.76-1.74v-9.04
		c0-1.181-0.02-1.3-0.62-1.66l-0.2-0.12c-0.1-0.06-0.1-0.34,0-0.4c0.5-0.159,1.44-0.46,2.16-0.84c0.08,0,0.16,0.04,0.2,0.12
		c-0.02,0.601-0.06,1.601-0.06,2.48V180.275z"/>
	<path d="M107.237,177.375c0-1.359-0.6-2.06-1.86-2.06c-0.76,0-1.38,0.34-1.66,0.7c-0.24,0.3-0.3,0.5-0.3,1.199v3.061
		c0,1.439,0.04,1.64,0.76,1.74l0.42,0.06c0.14,0.1,0.1,0.44-0.04,0.5c-0.6-0.04-1.18-0.06-1.88-0.06c-0.72,0-1.26,0.02-1.82,0.06
		c-0.14-0.06-0.18-0.4-0.04-0.5l0.36-0.06c0.74-0.12,0.76-0.301,0.76-1.74v-2.9c0-1.34-0.6-2.06-1.84-2.06
		c-0.82,0-1.38,0.359-1.68,0.72c-0.2,0.24-0.3,0.5-0.3,1.14v3.101c0,1.439,0.04,1.62,0.76,1.74l0.36,0.06
		c0.14,0.1,0.1,0.44-0.04,0.5c-0.54-0.04-1.12-0.06-1.82-0.06c-0.72,0-1.32,0.02-1.94,0.06c-0.14-0.06-0.18-0.4-0.04-0.5l0.48-0.06
		c0.74-0.101,0.76-0.301,0.76-1.74v-3.5c0-0.78,0-0.88-0.54-1.24l-0.18-0.12c-0.08-0.08-0.08-0.3,0.02-0.36
		c0.46-0.159,1.6-0.68,2-0.979c0.08,0,0.18,0.04,0.22,0.14c-0.04,0.46-0.04,0.761-0.04,0.94c0,0.12,0.08,0.22,0.22,0.22
		c0.76-0.54,1.7-1.02,2.66-1.02c1,0,1.56,0.359,2.12,1.18c0.18,0.04,0.32-0.04,0.5-0.16c0.8-0.56,1.78-1.02,2.72-1.02
		c1.6,0,2.38,1.1,2.38,2.479v3.44c0,1.439,0.04,1.64,0.76,1.74l0.48,0.06c0.14,0.1,0.1,0.44-0.04,0.5
		c-0.66-0.04-1.24-0.06-1.94-0.06c-0.72,0-1.26,0.02-1.82,0.06c-0.14-0.06-0.18-0.4-0.04-0.5l0.36-0.06
		c0.74-0.12,0.76-0.301,0.76-1.74V177.375z"/>
	<path d="M112.501,176.775c0-0.78,0-0.88-0.54-1.24l-0.18-0.12c-0.08-0.08-0.08-0.3,0.02-0.36c0.46-0.159,1.6-0.68,2-0.979
		c0.08,0,0.18,0.04,0.22,0.14c-0.04,0.46-0.04,0.761-0.04,0.94c0,0.12,0.08,0.22,0.22,0.22c0.84-0.52,1.78-1.02,2.8-1.02
		c1.66,0,2.34,1.14,2.34,2.479v3.44c0,1.439,0.04,1.64,0.76,1.74l0.44,0.06c0.14,0.1,0.1,0.44-0.04,0.5
		c-0.6-0.04-1.18-0.06-1.88-0.06c-0.72,0-1.32,0.02-1.86,0.06c-0.14-0.06-0.18-0.4-0.04-0.5l0.38-0.06
		c0.74-0.12,0.76-0.301,0.76-1.74v-2.98c0-1.14-0.52-1.979-1.88-1.979c-0.76,0-1.42,0.319-1.7,0.7c-0.26,0.34-0.3,0.619-0.3,1.199
		v3.061c0,1.439,0.04,1.62,0.76,1.74l0.36,0.06c0.14,0.1,0.1,0.44-0.04,0.5c-0.54-0.04-1.12-0.06-1.82-0.06
		c-0.72,0-1.32,0.02-1.88,0.06c-0.14-0.06-0.18-0.4-0.04-0.5l0.42-0.06c0.74-0.101,0.76-0.301,0.76-1.74V176.775z"/>
	<path d="M129.719,178.495c0,2.5-1.72,4.3-4.22,4.3c-2.3,0-4.1-1.62-4.1-4.12c0-2.52,1.9-4.319,4.26-4.319
		C127.899,174.355,129.719,176.035,129.719,178.495z M125.419,174.955c-1.32,0-2.3,1.26-2.3,3.46c0,1.82,0.82,3.78,2.58,3.78
		c1.76,0,2.3-1.84,2.3-3.38C127.999,177.115,127.319,174.955,125.419,174.955z"/>
	<path d="M131.767,176.775c0-0.78,0-0.88-0.54-1.24l-0.18-0.12c-0.08-0.08-0.08-0.3,0.02-0.36c0.52-0.22,1.46-0.699,1.98-1.079
		c0.12,0,0.2,0.04,0.24,0.14c-0.04,0.36-0.08,0.66-0.08,0.92c0,0.14,0.04,0.26,0.18,0.26c0.26-0.12,1.52-0.939,2.8-0.939
		c2.02,0,3.32,1.64,3.32,3.66c0,2.779-2.04,4.779-4.88,4.779c-0.36,0-0.92-0.04-1.1-0.08c-0.18,0.04-0.28,0.141-0.28,0.561v2.1
		c0,1.42,0.04,1.601,0.76,1.7l0.78,0.1c0.14,0.101,0.1,0.44-0.04,0.5c-0.96-0.04-1.54-0.06-2.24-0.06c-0.72,0-1.32,0.02-1.88,0.06
		c-0.14-0.06-0.18-0.399-0.04-0.5l0.42-0.06c0.74-0.101,0.76-0.3,0.76-1.74V176.775z M133.247,180.495c0,0.64,0.2,0.88,0.6,1.2
		c0.4,0.3,1.02,0.439,1.44,0.439c1.64,0,2.6-1.52,2.6-3.6c0-1.6-0.9-3.22-2.7-3.22c-0.86,0-1.48,0.319-1.7,0.56
		c-0.18,0.22-0.24,0.521-0.24,1.18V180.495z"/>
	<path d="M148.609,185.375c0,1.44,0.06,1.58,0.76,1.7l0.58,0.1c0.14,0.101,0.1,0.44-0.04,0.5c-0.76-0.04-1.34-0.06-2.04-0.06
		c-0.72,0-1.32,0.02-2.08,0.06c-0.14-0.06-0.18-0.399-0.04-0.5l0.62-0.06c0.74-0.08,0.76-0.3,0.76-1.74v-2.6
		c0-0.38-0.02-0.48-0.18-0.48c-0.52,0.3-1.26,0.5-2.04,0.5c-2.98,0-4.06-2.359-4.06-3.92c0-2.899,2.22-4.52,4.8-4.52
		c0.66,0,1.38,0.12,1.66,0.199c0.3,0.08,0.52,0.141,0.7,0.141c0.16,0,0.32-0.141,0.54-0.34c0.1,0,0.18,0.08,0.22,0.18
		c-0.12,0.48-0.16,1.16-0.16,2.42V185.375z M147.129,177.895c0-1.04-0.1-1.7-0.26-2c-0.28-0.5-0.86-0.92-1.72-0.92
		c-1.52,0-2.62,1.38-2.62,3.26c0,2.2,1.28,3.76,3.16,3.76c0.88,0,1.2-0.2,1.3-0.32s0.14-0.359,0.14-0.8V177.895z"/>
	<path d="M151.584,176.775c0-0.78,0-0.88-0.54-1.24l-0.18-0.12c-0.08-0.08-0.08-0.3,0.02-0.36c0.46-0.159,1.52-0.68,2.02-0.979
		c0.1,0.02,0.16,0.06,0.16,0.14v1.16c0,0.101,0.02,0.16,0.06,0.18c0.7-0.579,1.46-1.199,2.2-1.199c0.5,0,0.9,0.319,0.9,0.8
		c0,0.66-0.54,0.92-0.86,0.92c-0.2,0-0.3-0.06-0.44-0.14c-0.3-0.2-0.6-0.32-0.88-0.32c-0.32,0-0.56,0.18-0.72,0.4
		c-0.2,0.279-0.26,0.859-0.26,1.539v2.721c0,1.439,0.04,1.68,0.8,1.74l0.72,0.06c0.14,0.1,0.1,0.44-0.04,0.5
		c-0.94-0.04-1.52-0.06-2.22-0.06c-0.72,0-1.32,0.02-1.84,0.06c-0.14-0.06-0.18-0.4-0.04-0.5l0.38-0.06
		c0.74-0.12,0.76-0.301,0.76-1.74V176.775z"/>
	<path d="M161.788,174.714c0.18,0.44,0.32,1.08,0.32,1.62c-0.08,0.141-0.38,0.181-0.48,0.061c-0.34-0.88-0.94-1.46-1.76-1.46
		c-0.78,0-1.28,0.5-1.28,1.22c0,0.82,0.84,1.26,1.54,1.66c1.06,0.6,2.04,1.279,2.04,2.7c0,1.52-1.4,2.279-2.88,2.279
		c-0.94,0-1.64-0.2-2.14-0.6c-0.16-0.38-0.28-1.36-0.24-2.021c0.1-0.12,0.36-0.14,0.46-0.02c0.34,1.1,0.98,2.06,2.12,2.06
		c0.72,0,1.34-0.42,1.34-1.279c0-0.92-0.8-1.42-1.54-1.841c-1.16-0.659-1.98-1.359-1.98-2.46c0-1.46,1.2-2.279,2.72-2.279
		C160.868,174.355,161.608,174.554,161.788,174.714z"/>
	<path d="M166.32,175.475c-0.34,0-0.36,0.06-0.36,0.479v3.74c0,1.16,0.14,2.22,1.46,2.22c0.2,0,0.38-0.04,0.54-0.1
		c0.18-0.061,0.44-0.28,0.5-0.28c0.16,0,0.24,0.22,0.2,0.34c-0.36,0.42-1.08,0.92-2.1,0.92c-1.72,0-2.08-0.96-2.08-2.16v-4.58
		c0-0.539-0.02-0.579-0.42-0.579h-0.56c-0.12-0.08-0.14-0.301-0.06-0.421c0.58-0.18,1.08-0.439,1.28-0.619
		c0.26-0.24,0.64-0.78,0.84-1.181c0.1-0.04,0.34-0.04,0.42,0.101v0.899c0,0.36,0.02,0.38,0.36,0.38h2.22
		c0.24,0.181,0.2,0.721,0.02,0.841H166.32z"/>
	<path d="M172.236,179.575c0,1.38,0.34,2.3,1.86,2.3c0.54,0,1.18-0.22,1.62-0.6c0.26-0.24,0.399-0.54,0.399-1.16v-3.28
		c0-1.3-0.14-1.34-0.739-1.58l-0.261-0.1c-0.14-0.08-0.14-0.36,0.021-0.44c0.8-0.02,1.9-0.16,2.34-0.359
		c0.1,0.02,0.16,0.06,0.18,0.14c-0.04,0.38-0.06,1-0.06,1.74v3.359c0,1.58,0.06,2.181,0.62,2.181c0.24,0,0.5-0.04,0.78-0.101
		c0.119,0.101,0.14,0.5-0.021,0.58c-0.78,0.16-1.939,0.36-2.62,0.74c-0.1,0-0.2-0.06-0.24-0.14v-0.82c0-0.18-0.06-0.28-0.18-0.28
		c-0.6,0.38-1.58,1.04-2.76,1.04c-1.76,0-2.42-0.88-2.42-2.5v-3.34c0-1.26,0-1.439-0.6-1.7l-0.24-0.1
		c-0.12-0.101-0.1-0.38,0.04-0.44c0.92-0.02,1.7-0.199,2.14-0.359c0.12,0.02,0.18,0.06,0.2,0.14c-0.04,0.34-0.06,0.76-0.06,1.74
		V179.575z"/>
	<path d="M180.775,176.615c-0.3-0.74-0.479-1.38-1.199-1.48l-0.4-0.06c-0.12-0.16-0.1-0.44,0.06-0.5c0.5,0.04,1.2,0.06,1.881,0.06
		c0.539,0,0.939-0.02,1.619-0.06c0.141,0.08,0.16,0.4,0.021,0.5l-0.24,0.04c-0.62,0.1-0.64,0.2-0.439,0.8
		c0.46,1.38,1.04,2.78,1.5,3.82c0.18,0.399,0.26,0.58,0.319,0.64c0.08-0.06,0.221-0.34,0.38-0.76c0.261-0.68,0.94-2.42,1.141-2.94
		c0.279-0.699,0.359-1.12,0.359-1.239c0-0.181-0.12-0.261-0.359-0.301l-0.46-0.06c-0.12-0.14-0.101-0.42,0.04-0.5
		c0.62,0.04,1.12,0.06,1.5,0.06c0.5,0,0.84-0.02,1.399-0.06c0.141,0.08,0.16,0.38,0.04,0.5l-0.3,0.04c-0.7,0.1-0.88,0.62-1.46,1.74
		c-0.28,0.54-1.521,3.439-1.84,4.26c-0.2,0.5-0.4,0.96-0.66,1.64c-0.04,0.061-0.12,0.08-0.2,0.08c-0.1,0-0.2-0.02-0.26-0.08
		c-0.16-0.56-0.46-1.34-0.76-2.08L180.775,176.615z"/>
	<path d="M190.099,176.575c-0.46-1.12-0.699-1.32-1.199-1.44l-0.32-0.08c-0.1-0.1-0.12-0.399,0.06-0.479
		c0.62,0.04,1.181,0.06,1.78,0.06c0.62,0,1.2-0.02,1.74-0.06c0.16,0.08,0.18,0.38,0.04,0.479l-0.46,0.08
		c-0.28,0.04-0.44,0.16-0.44,0.28s0.101,0.5,0.32,1.04l1.24,3.061c0.18,0.46,0.359,0.819,0.359,0.859
		c0.061-0.04,0.221-0.38,0.46-0.96l0.98-2.42c0.26-0.64,0.28-0.9,0.18-1.16c-0.18-0.439-0.479-0.6-0.92-0.7l-0.32-0.08
		c-0.14-0.119-0.1-0.42,0.061-0.479c0.5,0.04,1.14,0.06,1.66,0.06c0.62,0,1.22-0.02,1.899-0.06c0.181,0.06,0.181,0.38,0.061,0.479
		l-0.42,0.08c-0.8,0.16-0.761,0.221-0.521,0.92c0.221,0.66,1.3,3.2,1.521,3.74c0.12,0.3,0.2,0.521,0.26,0.561
		c0.04-0.04,0.14-0.24,0.28-0.561c0.26-0.58,1.06-2.7,1.359-3.54c0.16-0.46,0.2-0.72,0.2-0.859c0-0.12-0.12-0.221-0.36-0.261
		l-0.5-0.08c-0.159-0.1-0.119-0.42,0.021-0.479c0.58,0.04,1.08,0.06,1.58,0.06c0.38,0,0.86-0.02,1.3-0.06
		c0.16,0.08,0.18,0.38,0.061,0.479l-0.4,0.08c-0.48,0.101-0.66,0.381-1.08,1.261c-0.54,1.12-1.5,3.52-1.88,4.54
		c-0.28,0.72-0.521,1.3-0.68,1.819c-0.08,0.061-0.16,0.08-0.261,0.08c-0.08,0-0.16-0.02-0.22-0.08c-0.12-0.359-0.479-1.399-0.82-2.2
		l-0.96-2.3c-0.14-0.359-0.439-1.02-0.46-1.02c-0.02,0-0.3,0.62-0.439,0.979l-1.04,2.5c-0.36,0.86-0.641,1.58-0.8,2.04
		c-0.061,0.061-0.141,0.08-0.24,0.08c-0.08,0-0.181-0.02-0.24-0.08c-0.12-0.42-0.44-1.239-0.6-1.66L190.099,176.575z"/>
	<path d="M204.293,175.995c-0.3-0.44-0.64-0.76-1.2-0.86l-0.319-0.06c-0.12-0.1-0.101-0.44,0.04-0.5
		c0.779,0.04,1.239,0.06,1.739,0.06c0.48,0,0.921-0.02,1.7-0.06c0.141,0.08,0.141,0.4,0.021,0.5l-0.3,0.06
		c-0.54,0.101-0.521,0.221-0.181,0.7l0.96,1.4c0.08,0.12,0.2,0.28,0.261,0.34c0.079-0.06,0.739-1.06,1.159-1.7
		c0.341-0.52,0.28-0.62-0.159-0.74l-0.24-0.06c-0.12-0.12-0.08-0.44,0.08-0.5c0.46,0.04,0.979,0.06,1.46,0.06
		c0.46,0,1.08-0.02,1.46-0.06c0.16,0.08,0.16,0.4,0.04,0.5l-0.3,0.06c-0.48,0.101-0.78,0.16-1,0.341
		c-0.341,0.279-1.08,1.199-1.881,2.279c-0.239,0.32-0.239,0.38,0.021,0.74l1.86,2.62c0.46,0.64,0.779,0.9,1.319,0.939l0.32,0.021
		c0.12,0.12,0.1,0.44-0.04,0.5c-0.74-0.04-1.4-0.06-1.98-0.06c-0.739,0-1.26,0.02-1.899,0.06c-0.16-0.06-0.2-0.4-0.061-0.5
		l0.58-0.06c0.58-0.061,0.601-0.24,0.34-0.601l-1.04-1.5c-0.239-0.36-0.359-0.52-0.439-0.58c-0.061,0.061-0.22,0.26-0.36,0.48
		l-0.84,1.319c-0.399,0.641-0.439,0.801,0.061,0.881l0.34,0.06c0.12,0.1,0.1,0.44-0.04,0.5c-0.5-0.04-1-0.06-1.48-0.06
		c-0.5,0-0.939,0.02-1.46,0.06c-0.16-0.08-0.18-0.42-0.04-0.5l0.46-0.08c0.36-0.06,0.641-0.22,1-0.6c0.42-0.44,1.32-1.78,1.78-2.341
		c0.18-0.22,0.22-0.3,0.06-0.52L204.293,175.995z"/>
	<path d="M212.173,186.634c0-0.54,0.36-0.8,0.8-0.8h0.38c0.32,0,0.521-0.14,0.66-0.359c0.58-0.9,0.98-1.74,1.16-2.221
		c0.06-0.16,0.2-0.58,0.2-0.859c0-0.4-0.08-0.641-0.34-1.38l-1.561-4.28c-0.34-0.94-0.479-1.42-1.18-1.561l-0.5-0.1
		c-0.12-0.1-0.1-0.44,0.06-0.5c0.641,0.04,1.24,0.06,1.9,0.06c0.54,0,1.1-0.02,1.74-0.06c0.16,0.06,0.18,0.4,0.04,0.5l-0.5,0.1
		c-0.28,0.061-0.44,0.12-0.44,0.261c0,0.239,0.46,1.54,0.58,1.88l0.64,1.84c0.12,0.32,0.5,1.38,0.58,1.42
		c0.061-0.04,0.38-0.66,0.74-1.48l0.68-1.579c0.44-1.04,0.7-1.78,0.7-2c0-0.141-0.12-0.28-0.479-0.341l-0.62-0.1
		c-0.141-0.1-0.12-0.44,0.04-0.5c0.64,0.04,1.239,0.06,1.76,0.06c0.5,0,0.96-0.02,1.52-0.06c0.16,0.08,0.181,0.38,0.04,0.5
		l-0.34,0.06c-0.66,0.12-1.02,0.7-1.7,2.12l-1.119,2.3c-0.66,1.341-2.301,4.82-3.28,7c-0.34,0.761-0.82,0.94-1.28,0.94
		C212.473,187.495,212.173,187.134,212.173,186.634z"/>
	<path d="M223.692,182.515c-1.08,0-1.859,0.02-2.1,0.06c-0.08-0.04-0.12-0.12-0.12-0.2c0.4-0.479,1.32-1.899,1.92-2.939l2.12-3.601
		c0.32-0.56,0.18-0.6-0.18-0.6h-1.38c-0.601,0-1.08,0.06-1.381,0.3c-0.34,0.26-0.54,0.72-0.72,1.16c-0.1,0.12-0.399,0.08-0.46-0.08
		c0.04-0.521,0.38-1.86,0.66-2.34c0.06-0.04,0.18-0.04,0.24,0c0.06,0.34,0.279,0.359,1.42,0.359h2.84c0.54,0,0.92,0,1.22-0.06
		c0.08,0.04,0.12,0.1,0.101,0.2c-0.42,0.58-0.9,1.319-1.48,2.279l-2.42,4.061c-0.42,0.72-0.38,0.8,0.38,0.8h0.68
		c0.78,0,1.801,0,2.36-0.6c0.22-0.24,0.42-0.66,0.64-1.16c0.141-0.08,0.381-0.04,0.44,0.12c-0.18,0.979-0.48,1.92-0.74,2.3
		c-0.66-0.04-1.319-0.06-2.24-0.06H223.692z"/>
	<path d="M243.112,178.315c0,2.6-2,4.479-4.399,4.479c-2.4,0-4.4-1.88-4.4-4.479c0-2.641,2-4.521,4.4-4.521
		C241.112,173.794,243.112,175.674,243.112,178.315z M241.772,178.315c0-2.061-1.22-3.601-3.06-3.601s-3.061,1.54-3.061,3.601
		c0,2.02,1.221,3.56,3.061,3.56S241.772,180.334,241.772,178.315z"/>
	<path d="M247.336,180.334c0,1.38,0.04,1.601,1.12,1.7l0.64,0.06c0.141,0.101,0.12,0.44-0.06,0.48c-0.48-0.04-1.561-0.06-2.46-0.06
		c-0.86,0-2.04,0.02-2.42,0.06c-0.181-0.04-0.2-0.38-0.061-0.48l0.54-0.06c1.18-0.14,1.22-0.32,1.22-1.7v-4.08
		c0-1.38-0.06-1.5-1.22-1.7l-0.34-0.06c-0.14-0.1-0.12-0.44,0.06-0.479c0.381,0.039,1.36,0.06,2.221,0.06
		c0.899,0,1.779-0.021,2.26-0.06c0.18,0.039,0.2,0.38,0.06,0.479l-0.34,0.06c-1.16,0.2-1.22,0.32-1.22,1.7V180.334z"/>
	<path d="M255.978,181.355c1.08,0,1.52-0.021,2-0.98c0.16-0.1,0.4-0.02,0.479,0.16c-0.359,0.76-0.699,1.48-0.939,2.04
		c-0.74-0.04-1.58-0.06-2.72-0.06h-1.98c-0.66,0-1.36,0.02-1.78,0.06c-0.1-0.04-0.18-0.22-0.12-0.34c0.58-0.44,1.221-0.96,2.021-1.8
		c1.06-1.12,2.06-2.28,2.06-3.54c0-1.221-0.68-1.94-1.76-1.94c-0.859,0-1.52,0.54-2.04,1.38c-0.22,0.061-0.399-0.1-0.399-0.3
		c0.46-0.98,1.619-2.24,3.199-2.24s2.58,0.96,2.58,2.32c0,1.2-0.6,1.96-1.8,3.26l-1.56,1.7c-0.021,0.16,0.04,0.28,0.38,0.28H255.978
		z"/>
	<path d="M264.604,175.895c0,0.52-0.28,1.18-1.36,1.979c-0.439,0.32-0.56,0.48-0.319,0.561c1.279,0.42,2.079,1.26,2.079,2.6
		c0,1.48-0.72,2.64-1.72,3.54c-1.16,1.04-2.66,1.7-3.26,1.7c-0.64,0-0.8-0.561-0.8-0.82c0-0.3,0.2-0.34,0.359-0.34
		c0.16,0,0.601,0.1,1.021,0.1c1.399,0,2.82-1.16,2.82-3.42c0-1.18-0.561-2.399-1.921-2.399c-0.42,0-0.779,0.239-1.14,0.58
		c-0.2-0.021-0.399-0.28-0.3-0.601c1.2-0.64,3.04-1.52,3.04-3.1c0-0.86-0.5-1.48-1.5-1.48c-0.66,0-1.2,0.32-1.8,1.12
		c-0.2,0-0.34-0.12-0.34-0.3c0.42-0.88,1.56-1.82,2.88-1.82C263.363,173.794,264.604,174.334,264.604,175.895z"/>
	<path d="M271.855,182.475c0-0.4,0-0.48-0.4-0.48h-4.7c-0.119-0.08-0.159-0.2-0.159-0.34l0.88-1c0.939-1.08,5.12-6.34,5.479-6.86
		c0.12-0.06,0.3-0.02,0.36,0.101v6.6c0,0.5,0.04,0.54,0.4,0.54h1.72c0.18,0.18,0.18,0.78,0,0.96h-1.72c-0.4,0-0.4,0.04-0.4,0.48
		v3.619c-0.08,0.12-0.561,0.141-0.78,0.141c-0.2,0-0.58-0.021-0.68-0.141V182.475z M271.455,181.035c0.38,0,0.4-0.02,0.4-0.54v-4.24
		h-0.04c-0.8,1.021-2.68,3.36-3.46,4.38c-0.16,0.221-0.18,0.4,0.22,0.4H271.455z"/>
	<path d="M276.271,186.475c-0.24-0.101-0.32-0.421-0.16-0.561c1.1-0.34,3.18-1.82,3.18-4.02c0-1.261-0.76-2.16-1.619-2.78
		c-0.86-0.62-1.58-1.021-1.58-1.72c0-0.341,0.18-1,0.439-1.601c0.26-0.62,0.62-1.22,0.88-1.3c0.261-0.08,0.66-0.14,1.3-0.24l1.4-0.2
		c0.74-0.1,0.88-0.159,1.1-0.3c0.181,0.021,0.24,0.141,0.221,0.261c-0.141,0.439-0.5,1.18-1.141,1.279l-2.54,0.36
		c-0.579,0.08-0.68,0.24-0.779,0.56c-0.101,0.36,0,0.58,0.56,0.96c0.32,0.221,0.68,0.46,0.94,0.641c1.3,0.899,2.22,2.04,2.22,3.62
		C280.691,184.195,277.731,186.035,276.271,186.475z"/>
	<path d="M290.403,178.815c0,2.239-1.78,3.979-4.08,3.979c-2.2,0-3.66-1.66-3.66-4.16c0-1.939,0.8-4.239,2.82-6.1
		c2.14-1.98,4.8-2.62,5.579-2.74c0.141,0.061,0.2,0.3,0.061,0.4c-1.14,0.439-2.521,1.02-3.88,2.28c-1.82,1.68-2.94,3.8-2.94,6.3
		c0,1.68,0.78,3.38,2.44,3.38c1.26,0,2.16-1.061,2.16-2.62c0-1.38-0.7-2.84-2.24-2.84c-0.3,0-0.66,0.04-1.04,0.22
		c-0.14-0.04-0.22-0.2-0.14-0.36c0.72-0.52,1.34-0.8,2.06-0.8C289.383,175.754,290.403,177.214,290.403,178.815z"/>
	<path d="M294.066,175.315c-1,0-1.56,0.14-1.96,1.04c-0.18,0.08-0.399,0-0.46-0.141c0.28-0.56,0.58-1.54,0.7-2.199
		c0.48,0.039,1.08,0.06,1.96,0.06h3.12c1.061,0,2.2,0,2.521-0.06c0.119,0.02,0.18,0.1,0.18,0.199c-0.54,0.801-1.521,2.561-2.54,4.5
		l-4.1,7.74c-0.061,0.021-0.08,0.021-0.2,0.021c-0.2,0-0.48-0.12-0.521-0.381l5.2-9.64c0.54-1,0.46-1.14-0.06-1.14H294.066z"/>
	<path d="M308.146,172.975c0,1.619-1.3,2.46-2.42,3.159c1.301,0.98,2.34,1.841,2.34,3.7c0,1.78-1.46,2.96-3.279,2.96
		c-1.66,0-3.24-0.92-3.24-2.76c0-1.54,1.24-2.54,2.44-3.34c-1.16-0.78-2.32-1.9-2.32-3.36c0-2.02,1.62-3.24,3.439-3.24
		C306.687,170.094,308.146,171.075,308.146,172.975z M302.887,179.915c0,1.22,0.74,2.28,1.98,2.28c1.199,0,1.88-0.82,1.88-1.96
		c0-1.4-1.28-2.521-2.3-3.181C303.547,177.735,302.887,178.735,302.887,179.915z M303.047,172.875c0,1.4,1.24,2.26,2.2,2.9
		c0.92-0.58,1.54-1.601,1.54-2.86c0-1.1-0.641-2.22-1.82-2.22S303.047,171.754,303.047,172.875z"/>
	<path d="M309.742,186.475c-0.14-0.08-0.22-0.32-0.1-0.44c1.14-0.4,2.08-0.92,2.859-1.521c1.04-0.8,3.181-3.02,3.181-6.64
		c0-1.34-0.44-3.42-2.38-3.42c-1.24,0-2.04,1.021-2.04,2.4c0,1.239,0.739,2.899,2.08,2.899c0.399,0,0.659-0.04,0.96-0.18
		c0.14,0.06,0.159,0.22,0.119,0.36c-0.52,0.42-1.14,0.699-1.939,0.699c-1.54,0-2.64-1.319-2.64-2.96c0-2.3,1.84-3.88,3.92-3.88
		c2.399,0,3.56,1.74,3.56,4.181c0,2.04-0.86,4.3-2.939,6.22C312.982,185.475,311.183,186.214,309.742,186.475z"/>
</g>
</svg>
